<?xml version="1.0" encoding="utf-8"?>
<!-- Generator: Adobe Illustrator 21.0.0, SVG Export Plug-In . SVG Version: 6.00 Build 0)  -->
<svg version="1.1" id="Capa_1" xmlns="http://www.w3.org/2000/svg" xmlns:xlink="http://www.w3.org/1999/xlink" x="0px" y="0px"
	 viewBox="0 0 64 64" style="enable-background:new 0 0 64 64;" xml:space="preserve">
<path d="M32,2c16.5,0,30,13.5,30,30S48.5,62,32,62S2,48.5,2,32S15.5,2,32,2 M32,0C14.3,0,0,14.3,0,32s14.3,32,32,32s32-14.3,32-32
	S49.7,0,32,0L32,0z"/>
<path d="M52,27H37V12c0-2.8-2.3-5-5-5s-5,2.3-5,5v15H12c-2.8,0-5,2.3-5,5s2.3,5,5,5h15v15c0,2.8,2.3,5,5,5s5-2.3,5-5V37h15
	c2.8,0,5-2.3,5-5S54.8,27,52,27z"/>
</svg>
