<?xml version="1.0" encoding="utf-8"?>
<!-- Generator: Adobe Illustrator 21.0.0, SVG Export Plug-In . SVG Version: 6.00 Build 0)  -->
<svg version="1.1" id="Capa_1" xmlns="http://www.w3.org/2000/svg" xmlns:xlink="http://www.w3.org/1999/xlink" x="0px" y="0px"
	 viewBox="0 0 64 64" style="enable-background:new 0 0 64 64;" xml:space="preserve">
<g>
	<path d="M42,28.6c0.7-0.6,1.1-1.5,1.1-2.6c0-1.9-1.3-2.9-3.8-2.9h-2.7v6.4h2.4C40.2,29.5,41.2,29.2,42,28.6z"/>
	<path d="M39.2,32.5h-2.7v7.1h3.2c1.4,0,2.5-0.3,3.2-1C43.7,38,44,37.1,44,36C44,33.7,42.4,32.5,39.2,32.5z"/>
	<path d="M32.1,51.2C32.1,51.2,32,51.2,32.1,51.2c-0.1,0-0.2,0-0.2,0H32.1z"/>
	<path d="M62.9,21c-1.5-3.4-3.9-5.3-5.5-6.4c-3.5-2.5-7-3.4-9.1-3.7c-5.4,0-10.8,0-16.2,0c-0.1,0-0.1,0-0.2,0c-5.4,0-10.8,0-16.2,0
		c-2.1,0.3-5.7,1.1-9.1,3.7c-1.5,1.1-4,2.9-5.5,6.4c-1.6,3.7-1.1,7.1-0.8,8.4c1.5,5.1,3,10.2,4.4,15.3c0.9,2.7,1.8,5.5,2.7,8.2
		c4.2-0.8,9-1.5,14.3-1.8C25.4,51,28.8,51,32,51.2c3.2-0.1,6.6-0.1,10.2,0.1c5.3,0.3,10.1,1,14.3,1.8c0.9-2.7,1.8-5.5,2.7-8.2
		c1.5-5.1,3-10.2,4.4-15.3C64,28.1,64.5,24.7,62.9,21z M29.6,42.6H17.2V20.2h3.7v19.3h8.7V42.6z M45.7,40.8
		c-1.5,1.2-3.4,1.8-5.7,1.8h-7.2V20.2h7.1c2.2,0,3.9,0.5,5.1,1.4c1.3,0.9,1.9,2.2,1.9,3.7c0,1.3-0.4,2.4-1.1,3.3s-1.7,1.6-3,2v0.1
		c1.5,0.2,2.8,0.7,3.7,1.7c0.9,1,1.4,2.2,1.4,3.8C48,38,47.2,39.6,45.7,40.8z"/>
</g>
</svg>
