<?xml version="1.0" encoding="utf-8"?>
<!-- Generator: Adobe Illustrator 21.0.0, SVG Export Plug-In . SVG Version: 6.00 Build 0)  -->
<svg version="1.1" id="Capa_1" xmlns="http://www.w3.org/2000/svg" xmlns:xlink="http://www.w3.org/1999/xlink" x="0px" y="0px"
	 viewBox="0 0 64 64" style="enable-background:new 0 0 64 64;" xml:space="preserve">
<path d="M52,19c5.5,0,10,4.5,10,10v6c0,5.5-4.5,10-10,10H12C6.5,45,2,40.5,2,35v-6c0-5.5,4.5-10,10-10H52 M52,17H12
	C5.4,17,0,22.4,0,29v6c0,6.6,5.4,12,12,12h40c6.6,0,12-5.4,12-12v-6C64,22.4,58.6,17,52,17L52,17z"/>
<g>
	<polygon points="37,39 23,32 37,25 	"/>
</g>
</svg>
