<?xml version="1.0" encoding="utf-8"?>
<!-- Generator: Adobe Illustrator 21.0.0, SVG Export Plug-In . SVG Version: 6.00 Build 0)  -->
<svg version="1.1" id="Capa_1" xmlns="http://www.w3.org/2000/svg" xmlns:xlink="http://www.w3.org/1999/xlink" x="0px" y="0px"
	 viewBox="0 0 64 64" style="enable-background:new 0 0 64 64;" xml:space="preserve">
<path d="M44.4,3.9c-9.5-0.8-17.9-0.6-24.8,0C12.3,4.6,5.7,5.7,0,7c0.2,3,0.6,7.4,1.8,12.6C5.3,35.4,12.3,44.8,14,47
	c5,6.5,9,8.8,11.4,9.9c2.6,1.2,5,1.8,6.6,2.1c1.6-0.3,4-0.9,6.6-2.1c2.7-1.2,6.5-3.6,11.4-9.9c1.7-2.2,8.7-11.6,12.2-27.4
	C63.4,14.4,63.8,10,64,7C58.3,5.7,51.7,4.6,44.4,3.9z M31.4,38.6H19V16.2h3.7v19.3h8.7V38.6z M47.1,19.3h-6.4v19.3h-3.7V19.3h-6.4
	v-3.2h16.6V19.3z"/>
</svg>
