<?xml version="1.0" encoding="utf-8"?>
<!-- Generator: Adobe Illustrator 21.0.0, SVG Export Plug-In . SVG Version: 6.00 Build 0)  -->
<svg version="1.1" id="Capa_1" xmlns="http://www.w3.org/2000/svg" xmlns:xlink="http://www.w3.org/1999/xlink" x="0px" y="0px"
	 viewBox="0 0 64 64" style="enable-background:new 0 0 64 64;" xml:space="preserve">
<g>
	<path d="M32,0C14.3,0,0,14.3,0,32c0,17.7,14.3,32,32,32s32-14.3,32-32C64,14.3,49.7,0,32,0z M52,37H37v15c0,2.8-2.3,5-5,5
		s-5-2.3-5-5V37H12c-2.8,0-5-2.3-5-5s2.3-5,5-5h15V12c0-2.8,2.3-5,5-5s5,2.3,5,5v15h15c2.8,0,5,2.3,5,5S54.8,37,52,37z"/>
	<rect x="27" y="27" width="10" height="10"/>
</g>
</svg>
