<?xml version="1.0" encoding="utf-8"?>
<!-- Generator: Adobe Illustrator 21.0.0, SVG Export Plug-In . SVG Version: 6.00 Build 0)  -->
<svg version="1.1" id="Capa_1" xmlns="http://www.w3.org/2000/svg" xmlns:xlink="http://www.w3.org/1999/xlink" x="0px" y="0px"
	 viewBox="0 0 64 64" style="enable-background:new 0 0 64 64;" xml:space="preserve">
<path d="M48.2,13c3,0.4,5.8,1.6,8.1,3.3c1.4,1,3.6,2.6,4.8,5.6c1.2,2.8,1,5.4,0.7,7.2l-4.4,15.2l-1.1,3.3l-1.1,3.3
	c-4.2-0.7-8.5-1.2-12.8-1.5c-2-0.1-4-0.2-5.9-0.2c-1.5,0-3,0-4.4,0.1c-1.5-0.1-3-0.1-4.4-0.1c-2,0-4,0.1-5.9,0.2
	c-4.3,0.2-8.6,0.7-12.8,1.5l-1.1-3.3l-1.1-3.3L2.8,30.9L2.2,29c-0.3-1.7-0.5-4.4,0.7-7.2c1.3-2.9,3.4-4.5,4.8-5.6
	c2.3-1.7,5.1-2.8,8.1-3.3h16.1h0.2H48.2 M48.3,11c-5.4,0-10.8,0-16.2,0h-0.2c0.1,0,0.1,0,0.2,0c-5.5,0-10.9,0-16.4,0
	c-2.1,0.3-5.7,1.1-9.1,3.7c-1.5,1.1-4,2.9-5.5,6.4c-1.6,3.7-1.1,7.1-0.8,8.4c1.5,5.1,3,10.2,4.4,15.3c0.9,2.7,1.8,5.5,2.7,8.2
	c4.2-0.8,9-1.5,14.3-1.8c2-0.1,4-0.2,5.8-0.2c1.5,0,3,0,4.4,0.1c1.4-0.1,2.9-0.1,4.4-0.1c1.9,0,3.8,0,5.8,0.2
	c5.3,0.3,10.1,1,14.3,1.8c0.9-2.7,1.8-5.5,2.7-8.2c1.5-5.1,3-10.2,4.4-15.3c0.3-1.4,0.8-4.8-0.8-8.4c-1.5-3.4-3.9-5.3-5.5-6.4
	C54,12.1,50.4,11.3,48.3,11L48.3,11z M32,51.2C32,51.2,31.9,51.2,32,51.2L32,51.2C32.1,51.2,32,51.2,32,51.2L32,51.2z"/>
<g>
	<path d="M29.6,42.6H17.2V20.2h3.7v19.3h8.7V42.6z"/>
	<path d="M32.8,42.6V20.2h7.1c2.2,0,3.9,0.5,5.1,1.4c1.3,0.9,1.9,2.2,1.9,3.7c0,1.3-0.4,2.4-1.1,3.3s-1.7,1.6-3,2v0.1
		c1.5,0.2,2.8,0.7,3.7,1.7c0.9,1,1.4,2.2,1.4,3.8c0,1.9-0.8,3.5-2.3,4.7c-1.5,1.2-3.4,1.8-5.7,1.8H32.8z M36.5,23.1v6.4h2.4
		c1.3,0,2.3-0.3,3-0.9s1.1-1.5,1.1-2.6c0-1.9-1.3-2.9-3.8-2.9H36.5z M36.5,32.5v7.1h3.2c1.4,0,2.5-0.3,3.2-1C43.7,38,44,37.1,44,36
		c0-2.3-1.6-3.5-4.8-3.5H36.5z"/>
</g>
</svg>
