<?xml version="1.0" encoding="utf-8"?>
<!-- Generator: Adobe Illustrator 21.0.0, SVG Export Plug-In . SVG Version: 6.00 Build 0)  -->
<svg version="1.1" id="Capa_1" xmlns="http://www.w3.org/2000/svg" xmlns:xlink="http://www.w3.org/1999/xlink" x="0px" y="0px"
	 viewBox="0 0 64 64" style="enable-background:new 0 0 64 64;" xml:space="preserve">
<g>
	<path d="M27,22.6c0-1.1-0.3-1.9-1-2.5c-0.7-0.6-1.7-0.9-2.9-0.9H20v7.3H23c0.6,0,1.1-0.1,1.6-0.3c0.5-0.2,0.9-0.4,1.3-0.8
		c0.4-0.3,0.6-0.7,0.8-1.2C26.9,23.7,27,23.2,27,22.6z"/>
	<path d="M44.4,3.9c-9.5-0.8-17.9-0.6-24.8,0C12.3,4.6,5.7,5.7,0,7c0.2,3,0.6,7.4,1.8,12.6C5.3,35.4,12.3,44.8,14,47
		c5,6.5,9,8.8,11.4,9.9c2.6,1.2,5,1.8,6.6,2.1c1.6-0.3,4-0.9,6.6-2.1c2.7-1.2,6.5-3.6,11.4-9.9c1.7-2.2,8.7-11.6,12.2-27.4
		C63.4,14.4,63.8,10,64,7C58.3,5.7,51.7,4.6,44.4,3.9z M29.2,38.6l-3.6-6c-0.3-0.6-0.6-1-0.9-1.4c-0.3-0.4-0.6-0.7-0.9-1
		c-0.3-0.3-0.7-0.4-1-0.5c-0.4-0.1-0.8-0.2-1.3-0.2H20v9.1h-3.7V16.2h7.4c1.1,0,2,0.1,2.9,0.4c0.9,0.3,1.7,0.6,2.3,1.1
		c0.7,0.5,1.2,1.1,1.5,1.9c0.4,0.8,0.6,1.6,0.6,2.6c0,0.8-0.1,1.5-0.4,2.2c-0.2,0.7-0.6,1.3-1,1.8c-0.4,0.5-1,1-1.6,1.3
		c-0.6,0.4-1.3,0.6-2.1,0.8v0.1c0.4,0.2,0.8,0.5,1.1,0.8c0.3,0.3,0.6,0.6,0.9,0.9c0.3,0.3,0.5,0.6,0.8,1c0.3,0.4,0.6,0.8,0.9,1.3
		l4,6.3H29.2z M49.8,19.3h-6.4v19.3h-3.7V19.3h-6.4v-3.2h16.6V19.3z"/>
</g>
</svg>
