<?xml version="1.0" encoding="utf-8"?>
<!-- Generator: Adobe Illustrator 21.0.0, SVG Export Plug-In . SVG Version: 6.00 Build 0)  -->
<svg version="1.1" id="Capa_1" xmlns="http://www.w3.org/2000/svg" xmlns:xlink="http://www.w3.org/1999/xlink" x="0px" y="0px"
	 viewBox="0 0 64 64" style="enable-background:new 0 0 64 64;" xml:space="preserve">
<path d="M60.8,41.4c-1-3.7-1.1-7-1-9.3V32c-0.1-2.3,0-5.6,1-9.3c0.5-2,1.2-3.8,1.9-5.2c2-2.2,1.3-5.3,0-7.3c-1-1.6-3-1.9-3.9-2.1
	C40.3,5.2,31,3.7,24.1,2.9C18,2.2,15.6,1.7,13.3,2.2c-0.2,0-0.9,0.3-1.7,0.7C4.3,6.6,2,16.2,1.1,20.9C0.7,23,0.2,28.1,0,32V32
	c0.2,6.9,0.7,12.2,1.9,15.5c1.9,5.2,4.9,10.9,9.7,13.5c2.9,1.6,4.9,0.9,12.6,0c6.9-0.8,16.2-2.3,34.8-5.2c0.9-0.1,2.8-0.5,3.9-2.1
	c1.3-2,2-5.1,0-7.3C62.1,45.1,61.4,43.4,60.8,41.4z M28.7,42.8H16.3V20.4H20v19.3h8.7V42.8z M48.5,41.2c-2.3,1.3-4.9,1.9-7.8,1.9
	c-3.3,0-6-1-8-3.1c-2.1-2.1-3.1-4.8-3.1-8.2c0-3.5,1.1-6.3,3.4-8.5c2.2-2.2,5.1-3.3,8.6-3.3c2.5,0,4.6,0.4,6.3,1.1v3.8
	c-1.7-1.1-3.8-1.7-6.1-1.7c-2.4,0-4.3,0.8-5.9,2.4c-1.5,1.6-2.3,3.6-2.3,6.1c0,2.6,0.7,4.6,2,6.1c1.3,1.5,3.1,2.2,5.3,2.2
	c1.5,0,2.9-0.3,4-0.9v-5.3H40v-3.1h8.4V41.2z"/>
</svg>
