<?xml version="1.0" encoding="utf-8"?>
<!-- Generator: Adobe Illustrator 21.0.0, SVG Export Plug-In . SVG Version: 6.00 Build 0)  -->
<svg version="1.1" id="Capa_1" xmlns="http://www.w3.org/2000/svg" xmlns:xlink="http://www.w3.org/1999/xlink" x="0px" y="0px"
	 viewBox="0 0 64 64" style="enable-background:new 0 0 64 64;" xml:space="preserve">
<path d="M48.6,4c0.6,0,1.1,0.1,1.5,0.2c0.1,0,0.7,0.2,1.4,0.6c6.8,3.4,8.8,13.3,9.4,16.6c0.4,2,0.9,7,1,10.7v0
	c-0.2,7.3-0.8,12.1-1.8,14.9c-2.2,6.2-5.3,10.5-8.7,12.4c-1,0.5-1.7,0.7-2.8,0.7c-1.1,0-2.7-0.2-4.7-0.5c-1.1-0.1-2.3-0.3-3.8-0.5
	c-6.8-0.8-16.1-2.2-34.7-5.2c-0.5-0.1-1.9-0.3-2.5-1.2c-0.7-1-1.6-3.3-0.2-4.8l0.2-0.2L3,47.4c0.9-1.8,1.6-3.6,2.1-5.5
	c0.9-3.2,1.2-6.5,1-9.9c0.2-3.4-0.2-6.7-1-9.9c-0.5-1.9-1.2-3.8-2.1-5.5l-0.1-0.3l-0.2-0.2c-1.4-1.5-0.5-3.8,0.2-4.8
	c0.6-0.9,2-1.1,2.5-1.2C24,7.2,33.3,5.7,40.1,4.9c1.5-0.2,2.7-0.3,3.8-0.5C46,4.2,47.5,4,48.6,4 M48.6,2c-1.9,0-4.4,0.4-8.8,0.9
	C33,3.7,23.7,5.2,5.1,8.1c-0.9,0.1-2.8,0.5-3.9,2.1c-1.3,2-2,5.1,0,7.3c0.7,1.4,1.4,3.1,1.9,5.2c1,3.7,1.1,7,1,9.3V32
	c0.1,2.3,0,5.6-1,9.3c-0.5,2-1.2,3.8-1.9,5.2c-2,2.2-1.3,5.3,0,7.3c1,1.6,3,1.9,3.9,2.1c18.6,2.9,27.9,4.4,34.8,5.2
	c4.4,0.5,6.9,0.9,8.8,0.9c1.4,0,2.5-0.3,3.8-0.9c4.8-2.6,7.8-8.3,9.7-13.5c1.2-3.4,1.7-8.7,1.9-15.5V32c-0.2-3.9-0.7-8.9-1.1-11
	c-0.9-4.7-3.2-14.4-10.5-18c-0.8-0.4-1.6-0.7-1.7-0.7C50,2.1,49.4,2,48.6,2L48.6,2z"/>
<g>
	<path d="M31.2,42.8h-4.3l-3.6-6c-0.3-0.6-0.6-1-0.9-1.4c-0.3-0.4-0.6-0.7-0.9-1c-0.3-0.3-0.7-0.4-1-0.5c-0.4-0.1-0.8-0.2-1.3-0.2
		h-1.5v9.1h-3.7V20.4h7.4c1.1,0,2,0.1,2.9,0.4c0.9,0.3,1.7,0.6,2.3,1.1c0.7,0.5,1.2,1.1,1.5,1.9c0.4,0.8,0.6,1.6,0.6,2.6
		c0,0.8-0.1,1.5-0.4,2.2c-0.2,0.7-0.6,1.3-1,1.8c-0.4,0.5-1,1-1.6,1.3c-0.6,0.4-1.3,0.6-2.1,0.8v0.1c0.4,0.2,0.8,0.5,1.1,0.8
		c0.3,0.3,0.6,0.6,0.9,0.9c0.3,0.3,0.5,0.6,0.8,1c0.3,0.4,0.6,0.8,0.9,1.3L31.2,42.8z M17.5,23.4v7.3h3.1c0.6,0,1.1-0.1,1.6-0.3
		c0.5-0.2,0.9-0.4,1.3-0.8c0.4-0.3,0.6-0.7,0.8-1.2c0.2-0.5,0.3-1,0.3-1.6c0-1.1-0.3-1.9-1-2.5c-0.7-0.6-1.7-0.9-2.9-0.9H17.5z"/>
	<path d="M50.9,41.2c-2.3,1.3-4.9,1.9-7.8,1.9c-3.3,0-6-1-8-3.1c-2.1-2.1-3.1-4.8-3.1-8.2c0-3.5,1.1-6.3,3.4-8.5
		c2.2-2.2,5.1-3.3,8.6-3.3c2.5,0,4.6,0.4,6.3,1.1v3.8c-1.7-1.1-3.8-1.7-6.1-1.7c-2.4,0-4.3,0.8-5.9,2.4c-1.5,1.6-2.3,3.6-2.3,6.1
		c0,2.6,0.7,4.6,2,6.1c1.3,1.5,3.1,2.2,5.3,2.2c1.5,0,2.9-0.3,4-0.9v-5.3h-4.7v-3.1h8.4V41.2z"/>
</g>
</svg>
