<?xml version="1.0" encoding="utf-8"?>
<!-- Generator: Adobe Illustrator 21.0.0, SVG Export Plug-In . SVG Version: 6.00 Build 0)  -->
<svg version="1.1" id="Capa_1" xmlns="http://www.w3.org/2000/svg" xmlns:xlink="http://www.w3.org/1999/xlink" x="0px" y="0px"
	 viewBox="0 0 64 64" style="enable-background:new 0 0 64 64;" xml:space="preserve">
<g>
	<path d="M1.4,40.8c1.3,0.6,2.6,1.1,3.8,1.6c2.6,1.1,5.2,2.2,7.8,3.2c0.3,0.1,0.5,0.3,0.6,0.7c1.1,4.2,4.7,6.9,9,6.8
		c4-0.1,7.8-3.2,8.5-7.2c0.1-0.6,0.1-1.3,0.2-2c0-0.2,0.1-0.4,0.3-0.5c3.4-2.4,6.8-4.9,10.1-7.3c0.2-0.1,0.5-0.2,0.8-0.2
		c6.6-0.2,11.9-5.6,11.8-12.2c0-5.4-3.7-10.2-8.9-11.6c-5.6-1.5-11.7,1.4-14,6.8c-0.6,1.5-1,3-1,4.6c0,0.3-0.1,0.6-0.3,0.9
		c-2.3,3.4-4.7,6.9-7,10.3c-0.2,0.2-0.3,0.4-0.6,0.3c-1.7,0-3.3,0.4-4.8,1.3c-0.3,0.2-0.5,0.2-0.8,0c-5.3-2.2-10.7-4.5-16-6.7
		c-0.4-0.2-0.5-0.4-0.5-0.9C1,22.7,3.2,17.2,6.9,12.3c3.2-4.1,7.1-7.2,11.8-9.4c4.9-2.2,10-3.2,15.3-2.8c7.2,0.5,13.6,3.2,19,8.1
		c5.1,4.6,8.4,10.3,9.9,17c1.6,7.7,0.6,15.2-3.2,22.1c-3.9,7.2-9.8,12.2-17.5,14.9c-4,1.4-8.1,2-12.3,1.7
		c-10.4-0.8-18.6-5.7-24.5-14.3c-1.7-2.5-3-5.3-3.9-8.3C1.5,41.2,1.5,41,1.4,40.8z"/>
	<path d="M50.3,23.8c0,4.5-3.6,8-8.1,8c-4.4,0-7.8-3.7-7.8-8.2c0-4.4,3.7-7.9,8.1-7.9C46.8,15.8,50.4,19.4,50.3,23.8z M48.4,23.7
		c0-3.3-2.7-6.1-6-6.1c-3.3,0-6,2.7-6,6c0,3.3,2.7,6.1,6,6.1C45.7,29.8,48.4,27.1,48.4,23.7z"/>
	<path d="M20.1,37.6c2.6-1.1,6.6-0.1,8.3,3.4c1.6,3.4,0.1,7.6-3.3,9.1c-3.5,1.6-7.3-0.2-8.7-3.2c0.9,0.4,1.7,0.8,2.6,1.1
		c0.8,0.3,1.7,0.7,2.6,0.8c3.6,0.5,6.5-3.2,5.2-6.6c-0.5-1.4-1.4-2.4-2.8-3c-1.2-0.5-2.4-1-3.5-1.5C20.3,37.8,20.2,37.7,20.1,37.6z"
		/>
</g>
</svg>
