<?xml version="1.0" encoding="utf-8"?>
<!-- Generator: Adobe Illustrator 21.0.0, SVG Export Plug-In . SVG Version: 6.00 Build 0)  -->
<svg version="1.1" id="Capa_1" xmlns="http://www.w3.org/2000/svg" xmlns:xlink="http://www.w3.org/1999/xlink" x="0px" y="0px"
	 viewBox="0 0 64 64" style="enable-background:new 0 0 64 64;" xml:space="preserve">
<path d="M32,3.4v2c4.1,0,8.2,0.2,12.2,0.5c5.9,0.5,11.8,1.4,17.6,2.7c-0.3,3.6-0.8,7.1-1.6,10.6c-3.2,14.3-9.3,23.4-11.8,26.6
	c-4.7,6.1-8.3,8.2-10.6,9.3C36,56,34,56.6,32,57c-2-0.4-3.9-1-5.8-1.9c-2.3-1.1-5.9-3.2-10.6-9.3c-2.5-3.2-8.7-12.3-11.8-26.6
	c-0.8-3.5-1.3-7-1.6-10.6c5.8-1.3,11.7-2.2,17.6-2.7c4.1-0.4,8.2-0.5,12.3-0.5V3.4 M32,3.4c-4.5,0-8.7,0.2-12.4,0.5
	C12.3,4.6,5.7,5.7,0,7c0.2,3,0.6,7.4,1.8,12.6C5.3,35.4,12.3,44.8,14,47c5,6.5,9,8.8,11.4,9.9c2.6,1.2,5,1.8,6.6,2.1h0h0
	c1.6-0.3,4-0.9,6.6-2.1c2.7-1.2,6.5-3.6,11.4-9.9c1.7-2.2,8.7-11.6,12.2-27.4C63.4,14.4,63.8,10,64,7c-5.7-1.3-12.3-2.4-19.6-3.1
	C40,3.5,35.9,3.4,32,3.4L32,3.4z"/>
<g>
	<path d="M31.4,38.6H19V16.2h3.7v19.3h8.7V38.6z"/>
	<path d="M47.1,19.3h-6.4v19.3h-3.7V19.3h-6.4v-3.2h16.6V19.3z"/>
</g>
</svg>
