<?xml version="1.0" encoding="utf-8"?>
<!-- Generator: Adobe Illustrator 21.0.0, SVG Export Plug-In . SVG Version: 6.00 Build 0)  -->
<svg version="1.1" id="Capa_1" xmlns="http://www.w3.org/2000/svg" xmlns:xlink="http://www.w3.org/1999/xlink" x="0px" y="0px"
	 viewBox="0 0 64 64" style="enable-background:new 0 0 64 64;" xml:space="preserve">
<g>
	<path d="M24.6,26.8c0-1.1-0.3-1.9-1-2.5c-0.7-0.6-1.7-0.9-2.9-0.9h-3.1v7.3h3.1c0.6,0,1.1-0.1,1.6-0.3c0.5-0.2,0.9-0.4,1.3-0.8
		c0.4-0.3,0.6-0.7,0.8-1.2C24.5,27.9,24.6,27.4,24.6,26.8z"/>
	<path d="M62.9,20.9c-0.9-4.7-3.2-14.4-10.5-18c-0.8-0.4-1.6-0.7-1.7-0.7c-2.2-0.6-4.7,0-10.8,0.7C33,3.7,23.7,5.2,5.1,8.1
		c-0.9,0.1-2.8,0.5-3.9,2.1c-1.3,2-2,5.1,0,7.3c0.7,1.4,1.4,3.1,1.9,5.2c1,3.7,1.1,7,1,9.3V32c0.1,2.3,0,5.6-1,9.3
		c-0.5,2-1.2,3.8-1.9,5.2c-2,2.2-1.3,5.3,0,7.3c1,1.6,3,1.9,3.9,2.1c18.6,2.9,27.9,4.4,34.8,5.2c7.7,0.9,9.6,1.6,12.6,0
		c4.8-2.6,7.8-8.3,9.7-13.5c1.2-3.4,1.7-8.7,1.9-15.5V32C63.8,28.1,63.3,23,62.9,20.9z M26.8,42.8l-3.6-6c-0.3-0.6-0.6-1-0.9-1.4
		c-0.3-0.4-0.6-0.7-0.9-1c-0.3-0.3-0.7-0.4-1-0.5c-0.4-0.1-0.8-0.2-1.3-0.2h-1.5v9.1h-3.7V20.4h7.4c1.1,0,2,0.1,2.9,0.4
		c0.9,0.3,1.7,0.6,2.3,1.1c0.7,0.5,1.2,1.1,1.5,1.9c0.4,0.8,0.6,1.6,0.6,2.6c0,0.8-0.1,1.5-0.4,2.2c-0.2,0.7-0.6,1.3-1,1.8
		c-0.4,0.5-1,1-1.6,1.3c-0.6,0.4-1.3,0.6-2.1,0.8v0.1c0.4,0.2,0.8,0.5,1.1,0.8c0.3,0.3,0.6,0.6,0.9,0.9c0.3,0.3,0.5,0.6,0.8,1
		c0.3,0.4,0.6,0.8,0.9,1.3l4,6.3H26.8z M50.9,41.2c-2.3,1.3-4.9,1.9-7.8,1.9c-3.3,0-6-1-8-3.1c-2.1-2.1-3.1-4.8-3.1-8.2
		c0-3.5,1.1-6.3,3.4-8.5c2.2-2.2,5.1-3.3,8.6-3.3c2.5,0,4.6,0.4,6.3,1.1v3.8c-1.7-1.1-3.8-1.7-6.1-1.7c-2.4,0-4.3,0.8-5.9,2.4
		c-1.5,1.6-2.3,3.6-2.3,6.1c0,2.6,0.7,4.6,2,6.1c1.3,1.5,3.1,2.2,5.3,2.2c1.5,0,2.9-0.3,4-0.9v-5.3h-4.7v-3.1h8.4V41.2z"/>
</g>
</svg>
