<?xml version="1.0" encoding="utf-8"?>
<!-- Generator: Adobe Illustrator 21.0.0, SVG Export Plug-In . SVG Version: 6.00 Build 0)  -->
<svg version="1.1" id="Capa_1" xmlns="http://www.w3.org/2000/svg" xmlns:xlink="http://www.w3.org/1999/xlink" x="0px" y="0px"
	 viewBox="0 0 64 64" style="enable-background:new 0 0 64 64;" xml:space="preserve">
<path d="M15.4,4L15.4,4c1.1,0,2.7,0.2,4.7,0.5c1.1,0.1,2.3,0.3,3.8,0.5c6.8,0.8,16.1,2.2,34.7,5.2c0.5,0.1,1.9,0.3,2.5,1.2
	c0.7,1,1.6,3.3,0.2,4.8l-0.2,0.2L61,16.6c-0.9,1.8-1.6,3.6-2.1,5.5c-0.9,3.2-1.2,6.5-1,9.9c-0.2,3.4,0.2,6.7,1,9.9
	c0.5,1.9,1.2,3.8,2.1,5.5l0.1,0.3l0.2,0.2c1.4,1.5,0.5,3.8-0.2,4.8c-0.6,0.9-2,1.1-2.5,1.2c-18.5,2.9-27.8,4.4-34.7,5.2
	c-1.4,0.2-2.7,0.3-3.8,0.5C18,59.8,16.5,60,15.4,60c-1.1,0-1.9-0.2-2.8-0.7c-3.5-1.9-6.5-6.1-8.7-12.4C2.8,44.1,2.2,39.3,2,32v0
	c0.1-3.7,0.6-8.6,1-10.7c0.6-3.3,2.6-13.2,9.4-16.6c0.7-0.3,1.3-0.5,1.4-0.6C14.3,4.1,14.8,4,15.4,4 M15.4,2c-0.8,0-1.4,0.1-2,0.2
	c-0.2,0-0.9,0.3-1.7,0.7C4.3,6.6,2,16.2,1.1,20.9C0.7,23,0.2,28.1,0,32V32c0.2,6.9,0.7,12.2,1.9,15.5c1.9,5.2,4.9,10.9,9.7,13.5
	c1.3,0.7,2.3,0.9,3.8,0.9c1.9,0,4.4-0.4,8.8-0.9c6.9-0.8,16.2-2.3,34.8-5.2c0.9-0.1,2.8-0.5,3.9-2.1c1.3-2,2-5.1,0-7.3
	c-0.7-1.4-1.4-3.1-1.9-5.2c-1-3.7-1.1-7-1-9.3V32c-0.1-2.3,0-5.6,1-9.3c0.5-2,1.2-3.8,1.9-5.2c2-2.2,1.3-5.3,0-7.3
	c-1-1.6-3-1.9-3.9-2.1C40.3,5.2,31,3.7,24.1,2.9C19.8,2.4,17.3,2,15.4,2L15.4,2z"/>
<g>
	<path d="M28.7,42.8H16.3V20.4H20v19.3h8.7V42.8z"/>
	<path d="M48.5,41.2c-2.3,1.3-4.9,1.9-7.8,1.9c-3.3,0-6-1-8-3.1c-2.1-2.1-3.1-4.8-3.1-8.2c0-3.5,1.1-6.3,3.4-8.5
		c2.2-2.2,5.1-3.3,8.6-3.3c2.5,0,4.6,0.4,6.3,1.1v3.8c-1.7-1.1-3.8-1.7-6.1-1.7c-2.4,0-4.3,0.8-5.9,2.4c-1.5,1.6-2.3,3.6-2.3,6.1
		c0,2.6,0.7,4.6,2,6.1c1.3,1.5,3.1,2.2,5.3,2.2c1.5,0,2.9-0.3,4-0.9v-5.3H40v-3.1h8.4V41.2z"/>
</g>
</svg>
