<?xml version="1.0" encoding="utf-8"?>
<!-- Generator: Adobe Illustrator 21.0.0, SVG Export Plug-In . SVG Version: 6.00 Build 0)  -->
<svg version="1.1" id="Capa_1" xmlns="http://www.w3.org/2000/svg" xmlns:xlink="http://www.w3.org/1999/xlink" x="0px" y="0px"
	 viewBox="0 0 64 64" style="enable-background:new 0 0 64 64;" xml:space="preserve">
<g>
	<path d="M25.8,26.6c0-1.1-0.3-1.9-1-2.5c-0.7-0.6-1.7-0.9-2.9-0.9h-3.1v7.3h3.1c0.6,0,1.1-0.1,1.6-0.3c0.5-0.2,0.9-0.4,1.3-0.8
		c0.4-0.3,0.6-0.7,0.8-1.2C25.7,27.7,25.8,27.2,25.8,26.6z"/>
	<path d="M32.1,51.2C32.1,51.2,32,51.2,32.1,51.2c-0.1,0-0.2,0-0.2,0H32.1z"/>
	<path d="M44.1,28.6c0.7-0.6,1.1-1.5,1.1-2.6c0-1.9-1.3-2.9-3.8-2.9h-2.7v6.4h2.4C42.4,29.5,43.4,29.2,44.1,28.6z"/>
	<path d="M41.3,32.5h-2.7v7.1h3.2c1.4,0,2.5-0.3,3.2-1c0.8-0.6,1.1-1.5,1.1-2.6C46.2,33.7,44.6,32.5,41.3,32.5z"/>
	<path d="M62.9,21c-1.5-3.4-3.9-5.3-5.5-6.4c-3.5-2.5-7-3.4-9.1-3.7c-5.4,0-10.8,0-16.2,0c-0.1,0-0.1,0-0.2,0c-5.4,0-10.8,0-16.2,0
		c-2.1,0.3-5.7,1.1-9.1,3.7c-1.5,1.1-4,2.9-5.5,6.4c-1.6,3.7-1.1,7.1-0.8,8.4c1.5,5.1,3,10.2,4.4,15.3c0.9,2.7,1.8,5.5,2.7,8.2
		c4.2-0.8,9-1.5,14.3-1.8C25.4,51,28.8,51,32,51.2c3.2-0.1,6.6-0.1,10.2,0.1c5.3,0.3,10.1,1,14.3,1.8c0.9-2.7,1.8-5.5,2.7-8.2
		c1.5-5.1,3-10.2,4.4-15.3C64,28.1,64.5,24.7,62.9,21z M28,42.6l-3.6-6c-0.3-0.6-0.6-1-0.9-1.4c-0.3-0.4-0.6-0.7-0.9-1
		c-0.3-0.3-0.7-0.4-1-0.5c-0.4-0.1-0.8-0.2-1.3-0.2h-1.5v9.1H15V20.2h7.4c1.1,0,2,0.1,2.9,0.4c0.9,0.3,1.7,0.6,2.3,1.1
		c0.7,0.5,1.2,1.1,1.5,1.9c0.4,0.8,0.6,1.6,0.6,2.6c0,0.8-0.1,1.5-0.4,2.2c-0.2,0.7-0.6,1.3-1,1.8c-0.4,0.5-1,1-1.6,1.3
		c-0.6,0.4-1.3,0.6-2.1,0.8v0.1c0.4,0.2,0.8,0.5,1.1,0.8c0.3,0.3,0.6,0.6,0.9,0.9c0.3,0.3,0.5,0.6,0.8,1c0.3,0.4,0.6,0.8,0.9,1.3
		l4,6.3H28z M47.9,40.8c-1.5,1.2-3.4,1.8-5.7,1.8H35V20.2h7.1c2.2,0,3.9,0.5,5.1,1.4c1.3,0.9,1.9,2.2,1.9,3.7c0,1.3-0.4,2.4-1.1,3.3
		s-1.7,1.6-3,2v0.1c1.5,0.2,2.8,0.7,3.7,1.7c0.9,1,1.4,2.2,1.4,3.8C50.1,38,49.4,39.6,47.9,40.8z"/>
</g>
</svg>
