<?xml version="1.0" encoding="utf-8"?>
<!-- Generator: Adobe Illustrator 21.0.0, SVG Export Plug-In . SVG Version: 6.00 Build 0)  -->
<svg version="1.1" id="Capa_1" xmlns="http://www.w3.org/2000/svg" xmlns:xlink="http://www.w3.org/1999/xlink" x="0px" y="0px"
	 viewBox="0 0 64 64" style="enable-background:new 0 0 64 64;" xml:space="preserve">
<g>
	<path d="M20.6,21.6h-2V27h1.9c0.9,0,1.7-0.3,2.3-0.8c0.6-0.6,0.9-1.2,0.9-2.1C23.7,22.4,22.6,21.6,20.6,21.6z"/>
	<path d="M55.9,49.2c-1.5-3.3-3.4-8.5-4.1-15.1c-0.9-8.6,0.8-15.5,2.1-19.4c1.8-2.9,1.8-6.4,0-8.6c-1.4-1.8-3.5-2.1-4.1-2.2H33.3
		c-5.5,0-10.9,0-16.4,0c-1.6,0.1-5,0.6-7.3,3.2c-1.4,1.5-1.9,3.2-2.2,4.3c-3.3,12.8,0,23.7,0,23.7C9.6,42.4,13,47,13.9,48.2
		c1.2,1.5,3.1,4,6.5,6.5c5,3.6,10,4.9,13,5.4c7.5,0,15,0,22.6,0c0.5-0.5,1.7-2,2.1-4.3C58.4,52.1,56.2,49.6,55.9,49.2z M25.5,37.9
		l-3-5c-0.2-0.4-0.4-0.7-0.7-1c-0.2-0.3-0.4-0.6-0.6-0.8c-0.2-0.2-0.4-0.4-0.7-0.5c-0.2-0.1-0.5-0.2-0.8-0.2h-1.2v7.5h-4.4V18.3h7
		c4.8,0,7.1,1.8,7.1,5.3c0,0.7-0.1,1.3-0.3,1.9c-0.2,0.6-0.5,1.1-0.9,1.6s-0.8,0.9-1.4,1.2c-0.5,0.3-1.1,0.6-1.8,0.8v0.1
		c0.3,0.1,0.6,0.2,0.8,0.4s0.5,0.4,0.8,0.7c0.3,0.3,0.5,0.6,0.7,0.9s0.4,0.6,0.6,0.9l3.7,5.8H25.5z M47.7,21.9h-5.6v16h-4.4v-16
		h-5.6v-3.6h15.6V21.9z"/>
</g>
</svg>
