<?xml version="1.0" encoding="utf-8"?>
<!-- Generator: Adobe Illustrator 21.0.0, SVG Export Plug-In . SVG Version: 6.00 Build 0)  -->
<svg version="1.1" id="Capa_1" xmlns="http://www.w3.org/2000/svg" xmlns:xlink="http://www.w3.org/1999/xlink" x="0px" y="0px"
	 viewBox="0 0 64 64" style="enable-background:new 0 0 64 64;" xml:space="preserve">
<g>
	<path d="M43.3,36.1c-0.6-0.4-1.4-0.7-2.4-0.7h-2.4v5.2h2.4c1,0,1.8-0.2,2.4-0.7c0.6-0.5,0.9-1.1,0.9-1.9
		C44.1,37.2,43.9,36.5,43.3,36.1z"/>
	<path d="M42.6,31.5c0.5-0.4,0.8-1.1,0.8-1.8c0-1.4-1.1-2.2-3.2-2.2h-1.7v4.6h1.9C41.3,32.1,42,31.9,42.6,31.5z"/>
	<path d="M62.3,23c-0.4-0.6-0.9-1.2-1.5-1.8c-1.2-1.3-2.7-2.7-4.4-4c-1.7-1.3-3.4-2.6-5-3.5c-1.6-0.9-2.7-1.6-4.2-1.6
		C20.2,12,8,21,4.4,24.5c-1,0.9-1.6,2.1-1.7,3.5L1,46c-0.3,3.2,2.2,6,5.4,6h43.9c2.3,0,4.3-1.4,5.1-3.6c1.1-3.1,3-8.4,4.6-13.1
		c0.8-2.4,1.5-4.6,2.1-6.4c0.3-0.9,0.5-1.7,0.7-2.3c0.2-0.6,0.3-1.1,0.3-1.6C63,24.1,62.7,23.5,62.3,23z M29.4,43.9H17.7V24.2h4.4
		v16h7.3V43.9z M46.9,42.3c-1.3,1.1-3,1.6-5.3,1.6h-7.5V24.2h7.1c2.2,0,3.9,0.4,5,1.2c1.2,0.8,1.8,1.9,1.8,3.4c0,1.1-0.4,2-1.1,2.8
		c-0.7,0.8-1.6,1.3-2.7,1.7v0.1c1.4,0.2,2.5,0.7,3.3,1.5c0.8,0.9,1.3,1.9,1.3,3.1C48.8,39.8,48.1,41.2,46.9,42.3z"/>
</g>
</svg>
