<?xml version="1.0" encoding="utf-8"?>
<!-- Generator: Adobe Illustrator 21.0.0, SVG Export Plug-In . SVG Version: 6.00 Build 0)  -->
<svg version="1.1" id="Capa_1" xmlns="http://www.w3.org/2000/svg" xmlns:xlink="http://www.w3.org/1999/xlink" x="0px" y="0px"
	 viewBox="0 0 64 64" style="enable-background:new 0 0 64 64;" xml:space="preserve">
<g id="g4146" transform="translate(-1.5706619,12.357467)">
	<path id="path4148" inkscape:connector-curvature="0" d="M30.6,49.5c-4.6-0.4-9.3-2.1-13.3-4.7c-3.4-2.2-4.1-3.1-4.1-4.9
		c0-3.6,4-10,10.8-17.2c3.9-4.1,9.3-8.9,9.8-8.8C34.9,14.2,44,23,47.3,27.2c5.4,6.6,7.8,12,6.6,14.4c-1,1.8-6.9,5.4-11.2,6.8
		C39.1,49.4,34.4,49.9,30.6,49.5L30.6,49.5z M8.6,36.1c-2.8-4.3-4.2-8.5-4.9-14.6c-0.2-2-0.1-3.2,0.5-7.3C5,9,8,3.1,11.5-0.6
		c1.5-1.6,1.6-1.6,3.5-1c2.2,0.8,4.6,2.4,8.3,5.7l2.2,1.9l-1.2,1.4C18.8,14.2,13,23.7,10.9,29.6c-1.2,3.2-1.7,6.4-1.1,7.7
		C10.1,38.2,9.7,37.9,8.6,36.1z M57.7,36.9c0.3-1.3-0.1-3.8-0.9-6.3C55,25.1,49.1,15.1,43.7,8.2l-1.7-2.2l1.9-1.7
		c2.4-2.2,4.1-3.6,5.9-4.7C51.1-1.2,53.2-2,54.1-2c0.5,0,2.5,2,4,4.1c2.4,3.3,4.1,7.4,5,11.6c0.6,2.7,0.6,8.6,0.1,11.3
		c-0.4,2.2-1.4,5.1-2.2,7.1c-0.7,1.5-2.3,4.3-3.1,5.3C57.5,37.9,57.5,37.9,57.7,36.9L57.7,36.9z M31.1-3c-2.5-1.3-6.4-2.6-8.5-3
		c-0.8-0.1-2-0.2-2.8-0.2c-1.8,0.1-1.7,0,1.1-1.3c2.4-1.1,4.3-1.8,7-2.3c3-0.6,8.6-0.6,11.6,0c3.2,0.7,6.9,2.1,9.1,3.4l0.6,0.4
		l-1.4-0.1c-2.9-0.1-7,1-11.5,3.2c-1.4,0.7-2.5,1.2-2.6,1.2C33.4-1.9,32.3-2.4,31.1-3z"/>
</g>
</svg>
