<?xml version="1.0" encoding="utf-8"?>
<!-- Generator: Adobe Illustrator 21.0.0, SVG Export Plug-In . SVG Version: 6.00 Build 0)  -->
<svg version="1.1" id="Capa_1" xmlns="http://www.w3.org/2000/svg" xmlns:xlink="http://www.w3.org/1999/xlink" x="0px" y="0px"
	 viewBox="0 0 64 64" style="enable-background:new 0 0 64 64;" xml:space="preserve">
<polygon points="32,21 42,7 22,7 "/>
<g>
	<path d="M56,25H8c-3.3,0-6,2.7-6,6s2.7,6,6,6h8v20h32V37h8c3.3,0,6-2.7,6-6S59.3,25,56,25z M37.3,51.8L34,46.1
		c-0.3-0.5-0.6-1-0.9-1.3c-0.3-0.4-0.6-0.7-0.9-0.9s-0.6-0.4-1-0.5s-0.7-0.2-1.2-0.2h-1.4v8.5h-3.5v-21h6.9c1,0,1.9,0.1,2.7,0.4
		s1.6,0.6,2.2,1.1s1.1,1.1,1.4,1.8c0.3,0.7,0.5,1.5,0.5,2.5c0,0.7-0.1,1.4-0.3,2s-0.5,1.2-0.9,1.7c-0.4,0.5-0.9,0.9-1.5,1.2
		S35,42,34.3,42.2v0.1c0.4,0.2,0.7,0.5,1,0.7s0.6,0.5,0.8,0.8s0.5,0.6,0.8,0.9s0.5,0.7,0.8,1.2l3.7,5.9H37.3z"/>
	<path d="M35.3,36.8c0-1-0.3-1.8-1-2.4s-1.5-0.8-2.7-0.8h-2.9v6.8h2.9c0.5,0,1-0.1,1.5-0.2s0.8-0.4,1.2-0.7s0.6-0.7,0.8-1.1
		S35.3,37.4,35.3,36.8z"/>
</g>
</svg>
