<?xml version="1.0" encoding="utf-8"?>
<!-- Generator: Adobe Illustrator 21.0.0, SVG Export Plug-In . SVG Version: 6.00 Build 0)  -->
<svg version="1.1" id="Capa_1" xmlns="http://www.w3.org/2000/svg" xmlns:xlink="http://www.w3.org/1999/xlink" x="0px" y="0px"
	 viewBox="0 0 64 64" style="enable-background:new 0 0 64 64;" xml:space="preserve">
<path d="M32,6c14.3,0,26,11.7,26,26S46.3,58,32,58S6,46.3,6,32S17.7,6,32,6 M32,4C16.5,4,4,16.5,4,32c0,15.5,12.5,28,28,28
	s28-12.5,28-28C60,16.5,47.5,4,32,4L32,4z"/>
<path d="M39.5,33c-1-1-2.4-1.7-4.1-1.9V31c1.4-0.4,2.5-1.1,3.4-2c0.9-1,1.3-2.1,1.3-3.4c0-1.8-0.7-3.2-2.2-4.2
	c-1.4-1-3.5-1.5-6.2-1.5H23v24h9.2c2.7,0,4.9-0.6,6.4-1.9c1.6-1.3,2.4-3,2.4-5.2C41,35.3,40.5,34.1,39.5,33z M28.4,24h2
	c2.6,0,3.9,0.9,3.9,2.6c0,0.9-0.3,1.7-1,2.2c-0.6,0.5-1.5,0.8-2.6,0.8h-2.4V24z M34.3,39.1c-0.7,0.6-1.7,0.9-2.9,0.9h-2.9v-6.3h3
	c1.2,0,2.2,0.3,2.9,0.8c0.7,0.5,1,1.3,1,2.3C35.3,37.8,35,38.6,34.3,39.1z"/>
</svg>
