<?xml version="1.0" encoding="utf-8"?>
<!-- Generator: Adobe Illustrator 21.0.0, SVG Export Plug-In . SVG Version: 6.00 Build 0)  -->
<svg version="1.1" id="Capa_1" xmlns="http://www.w3.org/2000/svg" xmlns:xlink="http://www.w3.org/1999/xlink" x="0px" y="0px"
	 viewBox="0 0 64 64" style="enable-background:new 0 0 64 64;" xml:space="preserve">
<g>
	<path d="M44.6,31.5c0.5-0.4,0.8-1.1,0.8-1.8c0-1.4-1.1-2.2-3.2-2.2h-1.7v4.6h1.9C43.3,32.1,44,31.9,44.6,31.5z"/>
	<path d="M45.3,36.1c-0.6-0.4-1.4-0.7-2.4-0.7h-2.4v5.2h2.4c1,0,1.8-0.2,2.4-0.7c0.6-0.5,0.9-1.1,0.9-1.9
		C46.1,37.2,45.8,36.5,45.3,36.1z"/>
	<path d="M63,46l-1.6-18.1c-0.1-1.3-0.7-2.5-1.7-3.5C56,21,43.8,12,16.7,12c-1.4,0-2.6,0.7-4.2,1.6c-1.6,0.9-3.3,2.2-5,3.5
		c-1.7,1.3-3.2,2.7-4.4,4c-0.6,0.6-1.1,1.2-1.5,1.8S1,24.1,1,24.9c0,0.5,0.1,1,0.3,1.6c0.2,0.6,0.4,1.4,0.7,2.3
		c0.5,1.8,1.3,4,2.1,6.4c1.6,4.8,3.5,10,4.6,13.1c0.8,2.1,2.8,3.6,5.1,3.6h43.9C60.8,52,63.3,49.2,63,46z M27.1,43.9l-3-5
		c-0.2-0.4-0.4-0.7-0.7-1S23,37.2,22.8,37c-0.2-0.2-0.4-0.4-0.7-0.5c-0.2-0.1-0.5-0.2-0.8-0.2h-1.2v7.5h-4.4V24.2h7
		c4.8,0,7.1,1.8,7.1,5.3c0,0.7-0.1,1.3-0.3,1.9c-0.2,0.6-0.5,1.1-0.9,1.6s-0.8,0.9-1.4,1.2c-0.5,0.3-1.1,0.6-1.8,0.8v0.1
		c0.3,0.1,0.6,0.2,0.8,0.4s0.5,0.4,0.8,0.7s0.5,0.6,0.7,0.9s0.4,0.6,0.6,0.9l3.7,5.8H27.1z M48.8,42.3c-1.3,1.1-3,1.6-5.3,1.6H36
		V24.2h7.1c2.2,0,3.9,0.4,5,1.2c1.2,0.8,1.8,1.9,1.8,3.4c0,1.1-0.4,2-1.1,2.8c-0.7,0.8-1.6,1.3-2.7,1.7v0.1c1.4,0.2,2.5,0.7,3.3,1.5
		c0.8,0.9,1.3,1.9,1.3,3.1C50.8,39.8,50.1,41.2,48.8,42.3z"/>
	<path d="M22.2,27.6h-2V33h1.9c0.9,0,1.7-0.3,2.3-0.8c0.6-0.6,0.9-1.2,0.9-2.1C25.2,28.4,24.2,27.6,22.2,27.6z"/>
</g>
</svg>
