<?xml version="1.0" encoding="utf-8"?>
<!-- Generator: Adobe Illustrator 21.0.0, SVG Export Plug-In . SVG Version: 6.00 Build 0)  -->
<svg version="1.1" id="Capa_1" xmlns="http://www.w3.org/2000/svg" xmlns:xlink="http://www.w3.org/1999/xlink" x="0px" y="0px"
	 viewBox="0 0 64 64" style="enable-background:new 0 0 64 64;" xml:space="preserve">
<path d="M56.6,11.5c-0.3-1.1-0.8-2.8-2.2-4.3C52,4.6,48.7,4.1,47.1,4c-5.5,0-10.9,0-16.4,0H14.3c-0.6,0.1-2.7,0.4-4.1,2.2
	c-1.8,2.2-1.8,5.7,0,8.6c1.2,3.9,2.9,10.8,2.1,19.4c-0.7,6.6-2.6,11.7-4.1,15.1c-0.3,0.3-2.5,2.9-2.1,6.5C6.4,58,7.6,59.5,8.1,60
	c7.5,0,15,0,22.6,0c3-0.5,8-1.7,13-5.4c3.3-2.4,5.3-5,6.5-6.5c0.9-1.2,4.3-5.7,6.5-12.9C56.6,35.2,59.8,24.3,56.6,11.5z M31.5,37.9
	H19.8V18.3h4.4v16h7.3V37.9z M48,21.9h-5.6v16H38v-16h-5.6v-3.6H48V21.9z"/>
</svg>
