<?xml version="1.0" encoding="utf-8"?>
<!-- Generator: Adobe Illustrator 21.0.0, SVG Export Plug-In . SVG Version: 6.00 Build 0)  -->
<svg version="1.1" id="Capa_1" xmlns="http://www.w3.org/2000/svg" xmlns:xlink="http://www.w3.org/1999/xlink" x="0px" y="0px"
	 viewBox="0 0 64 64" style="enable-background:new 0 0 64 64;" xml:space="preserve">
<path d="M32,8c13.2,0,24,10.8,24,24S45.2,56,32,56S8,45.2,8,32S18.8,8,32,8 M32,2C15.4,2,2,15.4,2,32c0,16.6,13.4,30,30,30
	s30-13.4,30-30C62,15.4,48.6,2,32,2L32,2z"/>
<path d="M32,11c-11.6,0-21,9.4-21,21c0,11.6,9.4,21,21,21c11.6,0,21-9.4,21-21C53,20.4,43.6,11,32,11z M39,43.9H24.8V20.1h5.4v19.5
	H39V43.9z"/>
</svg>
