<?xml version="1.0" encoding="utf-8"?>
<!-- Generator: Adobe Illustrator 21.0.0, SVG Export Plug-In . SVG Version: 6.00 Build 0)  -->
<svg version="1.1" id="Capa_1" xmlns="http://www.w3.org/2000/svg" xmlns:xlink="http://www.w3.org/1999/xlink" x="0px" y="0px"
	 viewBox="0 0 64 64" style="enable-background:new 0 0 64 64;" xml:space="preserve">
<g>
	<path d="M34.4,28.9c0.6-0.5,1-1.3,1-2.2c0-1.8-1.3-2.6-3.9-2.6h-2v5.7h2.4C32.9,29.7,33.8,29.4,34.4,28.9z"/>
	<path d="M35.3,34.5c-0.7-0.5-1.7-0.8-2.9-0.8h-3V40h2.9c1.2,0,2.2-0.3,2.9-0.9c0.7-0.6,1.1-1.4,1.1-2.4
		C36.3,35.8,36,35.1,35.3,34.5z"/>
	<path d="M32,4C16.5,4,4,16.5,4,32c0,15.5,12.5,28,28,28s28-12.5,28-28C60,16.5,47.5,4,32,4z M39.6,42.1c-1.6,1.3-3.7,1.9-6.4,1.9
		H24V20h8.7c2.7,0,4.7,0.5,6.2,1.5c1.4,1,2.2,2.4,2.2,4.2c0,1.3-0.4,2.4-1.3,3.4c-0.9,1-2,1.6-3.4,2v0.1c1.7,0.2,3.1,0.8,4.1,1.9
		c1,1,1.5,2.3,1.5,3.8C42,39,41.2,40.8,39.6,42.1z"/>
</g>
</svg>
