<?xml version="1.0" encoding="utf-8"?>
<!-- Generator: Adobe Illustrator 21.0.0, SVG Export Plug-In . SVG Version: 6.00 Build 0)  -->
<svg version="1.1" id="Capa_1" xmlns="http://www.w3.org/2000/svg" xmlns:xlink="http://www.w3.org/1999/xlink" x="0px" y="0px"
	 viewBox="0 0 64 64" style="enable-background:new 0 0 64 64;" xml:space="preserve">
<path d="M32,6c14.3,0,26,11.7,26,26S46.3,58,32,58S6,46.3,6,32S17.7,6,32,6 M32,4C16.5,4,4,16.5,4,32c0,15.5,12.5,28,28,28
	s28-12.5,28-28C60,16.5,47.5,4,32,4L32,4z"/>
<path d="M34.6,35.4v8.5h-5.4v-8.4l-7.6-15.4h6.1l3.8,8.9c0.1,0.2,0.2,0.8,0.5,1.9h0.1c0.1-0.8,0.3-1.4,0.5-1.9l3.9-8.9h5.7
	L34.6,35.4z"/>
</svg>
