<?xml version="1.0" encoding="utf-8"?>
<!-- Generator: Adobe Illustrator 21.0.0, SVG Export Plug-In . SVG Version: 6.00 Build 0)  -->
<svg version="1.1" id="Capa_1" xmlns="http://www.w3.org/2000/svg" xmlns:xlink="http://www.w3.org/1999/xlink" x="0px" y="0px"
	 viewBox="0 0 64 64" style="enable-background:new 0 0 64 64;" xml:space="preserve">
<g>
	<path d="M45,7H19C10.8,7,4,13.8,4,22v30c0,2.8,2.3,5,5,5h46c2.8,0,5-2.3,5-5V22C60,13.8,53.3,7,45,7z M29.9,43h-17v-3.1l11-15.7
		H13.2v-4h16.4v3.1L18.7,39h11.2V43z M46.5,43L41,34.3h-2.6V43h-4.8V20.2h6.7c3.1,0,5.4,0.6,6.9,1.7c1.5,1.1,2.2,2.8,2.2,5.1
		c0,1.3-0.4,2.5-1.1,3.6s-1.8,1.9-3.1,2.5c3.4,5.1,5.7,8.5,6.7,10H46.5z"/>
	<path d="M43.4,24.8c-0.7-0.5-1.9-0.7-3.5-0.7h-1.5v6.2H40c1.5,0,2.7-0.3,3.4-0.8c0.7-0.5,1.1-1.3,1.1-2.4
		C44.5,26.1,44.1,25.3,43.4,24.8z"/>
</g>
</svg>
