<?xml version="1.0" encoding="utf-8"?>
<!-- Generator: Adobe Illustrator 21.0.0, SVG Export Plug-In . SVG Version: 6.00 Build 0)  -->
<svg version="1.1" id="Capa_1" xmlns="http://www.w3.org/2000/svg" xmlns:xlink="http://www.w3.org/1999/xlink" x="0px" y="0px"
	 viewBox="0 0 64 64" style="enable-background:new 0 0 64 64;" xml:space="preserve">
<path d="M45,9c7.2,0,13,5.8,13,13v30c0,1.7-1.3,3-3,3H9c-1.7,0-3-1.3-3-3V22c0-7.2,5.8-13,13-13H45 M45,7H19C10.8,7,4,13.8,4,22v30
	c0,2.8,2.3,5,5,5h46c2.8,0,5-2.3,5-5V22C60,13.8,53.3,7,45,7L45,7z"/>
<g>
	<g>
		<path d="M31.5,43h-17v-3.1l11-15.7H14.8v-4h16.4v3.1L20.2,39h11.2V43z"/>
		<path d="M35.1,43V20.2h4.8V39h9.3v4H35.1z"/>
	</g>
</g>
</svg>
