<?xml version="1.0" encoding="utf-8"?>
<!-- Generator: Adobe Illustrator 21.0.0, SVG Export Plug-In . SVG Version: 6.00 Build 0)  -->
<svg version="1.1" id="Capa_1" xmlns="http://www.w3.org/2000/svg" xmlns:xlink="http://www.w3.org/1999/xlink" x="0px" y="0px"
	 viewBox="0 0 64 64" style="enable-background:new 0 0 64 64;" xml:space="preserve">
<path d="M58,32c0,14.3-11.7,26-26,26S6,46.3,6,32S17.7,6,32,6S58,17.7,58,32 M60,32C60,16.5,47.5,4,32,4C16.5,4,4,16.5,4,32
	c0,15.5,12.5,28,28,28C47.5,60,60,47.5,60,32L60,32z"/>
<path d="M47.8,29.8l-15.1-16c-0.4-0.4-1.1-0.4-1.5,0l-15.1,16c-0.6,0.6-0.1,1.7,0.7,1.7H20V47h24V31.5h3.1
	C47.9,31.5,48.4,30.5,47.8,29.8z M37,40H27v-8h10V40z"/>
</svg>
