<?xml version="1.0" encoding="utf-8"?>
<!-- Generator: Adobe Illustrator 21.0.0, SVG Export Plug-In . SVG Version: 6.00 Build 0)  -->
<svg version="1.1" id="Capa_1" xmlns="http://www.w3.org/2000/svg" xmlns:xlink="http://www.w3.org/1999/xlink" x="0px" y="0px"
	 viewBox="0 0 64 64" style="enable-background:new 0 0 64 64;" xml:space="preserve">
<path d="M52,6c3.3,0,6,2.7,6,6v40c0,3.3-2.7,6-6,6H12c-3.3,0-6-2.7-6-6V12c0-3.3,2.7-6,6-6H52 M52,4H12c-4.4,0-8,3.6-8,8v40
	c0,4.4,3.6,8,8,8h40c4.4,0,8-3.6,8-8V12C60,7.6,56.4,4,52,4L52,4z"/>
<path d="M32,13c10.5,0,19,8.5,19,19s-8.5,19-19,19s-19-8.5-19-19S21.5,13,32,13 M32,11c-11.6,0-21,9.4-21,21c0,11.6,9.4,21,21,21
	s21-9.4,21-21C53,20.4,43.6,11,32,11L32,11z"/>
</svg>
