<?xml version="1.0" encoding="utf-8"?>
<!-- Generator: Adobe Illustrator 21.0.0, SVG Export Plug-In . SVG Version: 6.00 Build 0)  -->
<svg version="1.1" id="Capa_1" xmlns="http://www.w3.org/2000/svg" xmlns:xlink="http://www.w3.org/1999/xlink" x="0px" y="0px"
	 viewBox="0 0 64 64" style="enable-background:new 0 0 64 64;" xml:space="preserve">
<g>
	<path d="M50,1H38v62h12c6.6,0,12-5.4,12-12V13C62,6.4,56.6,1,50,1z M50,8c1.1,0,2,0.9,2,2c0,1.1-0.9,2-2,2s-2-0.9-2-2
		C48,8.9,48.9,8,50,8z M50,18c1.1,0,2,0.9,2,2c0,1.1-0.9,2-2,2s-2-0.9-2-2C48,18.9,48.9,18,50,18z M45,13c1.1,0,2,0.9,2,2
		c0,1.1-0.9,2-2,2s-2-0.9-2-2C43,13.9,43.9,13,45,13z M50,41c-3.9,0-7-3.1-7-7c0-3.9,3.1-7,7-7s7,3.1,7,7C57,37.9,53.9,41,50,41z
		 M55,17c-1.1,0-2-0.9-2-2c0-1.1,0.9-2,2-2s2,0.9,2,2C57,16.1,56.1,17,55,17z"/>
	<path d="M2,13v38c0,6.6,5.4,12,12,12h12V1H14C7.4,1,2,6.4,2,13z M9,36c-1.1,0-2-0.9-2-2c0-1.1,0.9-2,2-2s2,0.9,2,2
		C11,35.1,10.1,36,9,36z M14,41c-1.1,0-2-0.9-2-2c0-1.1,0.9-2,2-2s2,0.9,2,2C16,40.1,15.1,41,14,41z M14,31c-1.1,0-2-0.9-2-2
		c0-1.1,0.9-2,2-2s2,0.9,2,2C16,30.1,15.1,31,14,31z M19,36c-1.1,0-2-0.9-2-2c0-1.1,0.9-2,2-2s2,0.9,2,2C21,35.1,20.1,36,19,36z
		 M21,15c0,3.9-3.1,7-7,7s-7-3.1-7-7c0-3.9,3.1-7,7-7S21,11.1,21,15z"/>
</g>
</svg>
