<?xml version="1.0" encoding="utf-8"?>
<!-- Generator: Adobe Illustrator 21.0.0, SVG Export Plug-In . SVG Version: 6.00 Build 0)  -->
<svg version="1.1" id="Capa_1" xmlns="http://www.w3.org/2000/svg" xmlns:xlink="http://www.w3.org/1999/xlink" x="0px" y="0px"
	 viewBox="0 0 64 64" style="enable-background:new 0 0 64 64;" xml:space="preserve">
<path d="M32,2c-5.5,0-10,4.5-10,10c0,5.5,4.5,10,10,10s10-4.5,10-10C42,6.5,37.5,2,32,2z M27,15l5-8l5,8H27z"/>
<path d="M42,52c0-5.5-4.5-10-10-10s-10,4.5-10,10c0,5.5,4.5,10,10,10S42,57.5,42,52z M37,49l-5,8l-5-8H37z"/>
<path d="M2,32c0,5.5,4.5,10,10,10c5.5,0,10-4.5,10-10s-4.5-10-10-10C6.5,22,2,26.5,2,32z M15,37l-8-5l8-5V37z"/>
<path d="M52,22c-5.5,0-10,4.5-10,10s4.5,10,10,10c5.5,0,10-4.5,10-10S57.5,22,52,22z M49,27l8,5l-8,5V27z"/>
</svg>
