<?xml version="1.0" encoding="utf-8"?>
<!-- Generator: Adobe Illustrator 21.0.0, SVG Export Plug-In . SVG Version: 6.00 Build 0)  -->
<svg version="1.1" id="Capa_1" xmlns="http://www.w3.org/2000/svg" xmlns:xlink="http://www.w3.org/1999/xlink" x="0px" y="0px"
	 viewBox="0 0 64 64" style="enable-background:new 0 0 64 64;" xml:space="preserve">
<g>
	<path d="M34.1,24.8c-0.7-0.5-1.9-0.7-3.5-0.7h-1.5v6.2h1.6c1.5,0,2.7-0.3,3.4-0.8c0.7-0.5,1.1-1.3,1.1-2.4
		C35.2,26.1,34.8,25.3,34.1,24.8z"/>
	<path d="M56,16H8c-2.2,0-4,1.8-4,4v16c0,6.6,5.4,12,12,12h32c6.6,0,12-5.4,12-12V20C60,17.8,58.2,16,56,16z M37.2,43l-5.5-8.8h-2.6
		V43h-4.8V20.2H31c3.1,0,5.4,0.6,6.9,1.7c1.5,1.1,2.2,2.8,2.2,5.1c0,1.3-0.4,2.5-1.1,3.6s-1.8,1.9-3.1,2.5c3.4,5.1,5.7,8.5,6.7,10
		H37.2z"/>
</g>
</svg>
