<?xml version="1.0" encoding="utf-8"?>
<!-- Generator: Adobe Illustrator 21.0.0, SVG Export Plug-In . SVG Version: 6.00 Build 0)  -->
<svg version="1.1" id="Capa_1" xmlns="http://www.w3.org/2000/svg" xmlns:xlink="http://www.w3.org/1999/xlink" x="0px" y="0px"
	 viewBox="0 0 64 64" style="enable-background:new 0 0 64 64;" xml:space="preserve">
<path d="M48,49H16C8.8,49,3,43.2,3,36V20c0-2.8,2.2-5,5-5h48c2.8,0,5,2.2,5,5v16C61,43.2,55.2,49,48,49z M8,17c-1.7,0-3,1.3-3,3v16
	c0,6.1,4.9,11,11,11h32c6.1,0,11-4.9,11-11V20c0-1.7-1.3-3-3-3H8z"/>
<g>
	<path d="M25.8,43V20.2h4.8V39h9.3v4H25.8z"/>
</g>
</svg>
