<?xml version="1.0" encoding="utf-8"?>
<!-- Generator: Adobe Illustrator 21.0.0, SVG Export Plug-In . SVG Version: 6.00 Build 0)  -->
<svg version="1.1" id="Capa_1" xmlns="http://www.w3.org/2000/svg" xmlns:xlink="http://www.w3.org/1999/xlink" x="0px" y="0px"
	 viewBox="0 0 64 64" style="enable-background:new 0 0 64 64;" xml:space="preserve">
<path d="M32,2C15.4,2,2,15.4,2,32c0,16.6,13.4,30,30,30s30-13.4,30-30C62,15.4,48.6,2,32,2z M55,33c-0.5,11.9-10.1,21.5-22,22v5h-2
	v-5C19.1,54.5,9.5,44.9,9,33H4v-2h5C9.5,19.1,19.1,9.5,31,9V4h2v5c11.9,0.5,21.5,10.1,22,22h5v2H55z"/>
<path d="M32,11c-11.6,0-21,9.4-21,21c0,11.6,9.4,21,21,21c11.6,0,21-9.4,21-21C53,20.4,43.6,11,32,11z M39.9,43H25.8V20.2h4.8V39
	h9.3V43z"/>
</svg>
