<?xml version="1.0" encoding="utf-8"?>
<!-- Generator: Adobe Illustrator 21.0.0, SVG Export Plug-In . SVG Version: 6.00 Build 0)  -->
<svg version="1.1" id="Capa_1" xmlns="http://www.w3.org/2000/svg" xmlns:xlink="http://www.w3.org/1999/xlink" x="0px" y="0px"
	 viewBox="0 0 64 64" style="enable-background:new 0 0 64 64;" xml:space="preserve">
<path d="M32,2C15.4,2,2,15.4,2,32c0,16.6,13.4,30,30,30s30-13.4,30-30C62,15.4,48.6,2,32,2z M55,33c-0.5,11.9-10.1,21.5-22,22v5h-2
	v-5C19.1,54.5,9.5,44.9,9,33H4v-2h5C9.5,19.1,19.1,9.5,31,9V4h2v5c11.9,0.5,21.5,10.1,22,22h5v2H55z"/>
<g>
	<path d="M34.1,24.8c-0.7-0.5-1.9-0.7-3.5-0.7h-1.5v6.2h1.6c1.5,0,2.7-0.3,3.4-0.8c0.7-0.5,1.1-1.3,1.1-2.4
		C35.2,26.1,34.8,25.3,34.1,24.8z"/>
	<path d="M32,11c-11.6,0-21,9.4-21,21c0,11.6,9.4,21,21,21c11.6,0,21-9.4,21-21C53,20.4,43.6,11,32,11z M37.2,43l-5.5-8.8h-2.6V43
		h-4.8V20.2H31c3.1,0,5.4,0.6,6.9,1.7c1.5,1.1,2.2,2.8,2.2,5.1c0,1.3-0.4,2.5-1.1,3.6s-1.8,1.9-3.1,2.5c3.4,5.1,5.7,8.5,6.7,10H37.2
		z"/>
</g>
</svg>
