<?xml version="1.0" encoding="utf-8"?>
<!-- Generator: Adobe Illustrator 21.0.0, SVG Export Plug-In . SVG Version: 6.00 Build 0)  -->
<svg version="1.1" id="Main" xmlns="http://www.w3.org/2000/svg" xmlns:xlink="http://www.w3.org/1999/xlink" x="0px" y="0px"
	 viewBox="0 0 64 64" style="enable-background:new 0 0 64 64;" xml:space="preserve">
<g>
	<g>
		<path d="M58,8H6c-3.3,0-6,2.7-6,6v36c0,3.3,2.7,6,6,6h52c3.3,0,6-2.7,6-6V14C64,10.7,61.3,8,58,8z M22.7,25.3h-5.5V28h5.1v3.7
			h-5.1V35h5.5v3.8H12.6V21.6h10.2V25.3z M30.2,27.1c0.3,0.3,1.3,0.8,2.8,1.5c1.5,0.7,2.5,1.4,3.1,2.1s0.9,1.7,0.9,2.9
			c0,1.1-0.3,2-0.8,2.8s-1.3,1.5-2.3,1.9S31.6,39,30.2,39c-1.1,0-2.1-0.1-2.9-0.2s-1.6-0.4-2.4-0.8v-4.1c0.9,0.5,1.8,0.8,2.8,1.1
			s1.8,0.4,2.6,0.4c0.7,0,1.2-0.1,1.5-0.4s0.5-0.5,0.5-0.9c0-0.2-0.1-0.4-0.2-0.6s-0.3-0.4-0.6-0.5s-1-0.5-2.3-1.1
			c-1.1-0.5-2-1-2.5-1.5s-1-1-1.2-1.6S25,27.2,25,26.4c0-1.6,0.6-2.8,1.7-3.7s2.7-1.3,4.7-1.3c1.8,0,3.6,0.4,5.4,1.2l-1.4,3.6
			c-1.6-0.7-3-1.1-4.1-1.1c-0.6,0-1,0.1-1.3,0.3s-0.4,0.5-0.4,0.8C29.6,26.5,29.8,26.8,30.2,27.1z M47.5,35.2c0.8,0,1.5-0.1,2.2-0.3
			s1.4-0.5,2.1-0.8v3.9c-1.4,0.6-3,0.9-4.9,0.9c-2.6,0-4.6-0.8-5.9-2.3s-2.1-3.7-2.1-6.5c0-1.8,0.3-3.3,1-4.7s1.6-2.4,2.9-3.1
			s2.7-1.1,4.4-1.1c1.9,0,3.6,0.4,5.3,1.2l-1.4,3.6c-0.6-0.3-1.3-0.5-1.9-0.8s-1.3-0.3-2-0.3c-1.1,0-2,0.5-2.6,1.4s-0.9,2.1-0.9,3.7
			C43.7,33.6,45,35.2,47.5,35.2z"/>
	</g>
</g>
</svg>
