<?xml version="1.0" encoding="utf-8"?>
<!-- Generator: Adobe Illustrator 21.0.0, SVG Export Plug-In . SVG Version: 6.00 Build 0)  -->
<svg version="1.1" id="Main" xmlns="http://www.w3.org/2000/svg" xmlns:xlink="http://www.w3.org/1999/xlink" x="0px" y="0px"
	 viewBox="0 0 64 64" style="enable-background:new 0 0 64 64;" xml:space="preserve">
<g>
	<g>
		<path d="M56,0H8C3.6,0,0,3.6,0,8v48c0,4.4,3.6,8,8,8h48c4.4,0,8-3.6,8-8V8C64,3.6,60.4,0,56,0z M35.2,38.8c0,3.1-0.7,5.4-2,7
			c-1.4,1.6-3.4,2.4-6.1,2.4c-1.1,0-2.2-0.1-3.2-0.3v-4.8c0.3,0.1,0.7,0.1,1.1,0.2s0.8,0.1,1.2,0.1c1,0,1.8-0.3,2.2-0.9
			c0.4-0.6,0.7-1.7,0.7-3.2V18.2h6.2V38.8z"/>
	</g>
</g>
</svg>
