<?xml version="1.0" encoding="utf-8"?>
<!-- Generator: Adobe Illustrator 21.0.0, SVG Export Plug-In . SVG Version: 6.00 Build 0)  -->
<svg version="1.1" id="Main" xmlns="http://www.w3.org/2000/svg" xmlns:xlink="http://www.w3.org/1999/xlink" x="0px" y="0px"
	 viewBox="0 0 64 64" style="enable-background:new 0 0 64 64;" xml:space="preserve">
<g>
	<g>
		<path d="M56.5,4h-49C3.4,4,0,7.4,0,11.5v41C0,56.6,3.4,60,7.5,60h49c4.1,0,7.5-3.4,7.5-7.5v-41C64,7.4,60.6,4,56.5,4z M18.9,35.2
			c0.8,0,1.5-0.1,2.2-0.3s1.4-0.5,2.1-0.8v3.9c-1.4,0.6-3,0.9-4.9,0.9c-2.6,0-4.6-0.8-5.9-2.3s-2.1-3.7-2.1-6.5c0-1.8,0.3-3.3,1-4.7
			s1.6-2.4,2.9-3.1s2.7-1.1,4.4-1.1c1.9,0,3.6,0.4,5.3,1.2l-1.4,3.6c-0.6-0.3-1.3-0.5-1.9-0.8s-1.3-0.3-2-0.3c-1.1,0-2,0.5-2.6,1.4
			s-0.9,2.1-0.9,3.7C15.2,33.6,16.4,35.2,18.9,35.2z M35.1,38.3c-0.6,0.3-1.2,0.5-1.8,0.6s-1.2,0.2-2,0.2c-1.5,0-2.6-0.4-3.3-1.1
			s-1-1.9-1-3.5v-5.5h-1.6v-1.9l2-1.4l1.2-2.8h3v2.7h3.3v3.4h-3.3v5.2c0,0.9,0.4,1.3,1.2,1.3c0.6,0,1.4-0.2,2.2-0.5V38.3z
			 M46.4,29.7c-0.4-0.1-0.9-0.1-1.6-0.1c-1,0-1.7,0.2-2.2,0.7s-0.7,1.1-0.7,2v6.5h-4.6V25.5h3.4l0.7,2.1h0.2
			c0.4-0.7,0.9-1.3,1.6-1.7s1.4-0.7,2.1-0.7c0.4,0,0.8,0,1.1,0.1l0.3,0L46.4,29.7z M53.2,38.8h-4.6V20.5h4.6V38.8z"/>
	</g>
</g>
</svg>
