<?xml version="1.0" encoding="utf-8"?>
<!-- Generator: Adobe Illustrator 21.0.0, SVG Export Plug-In . SVG Version: 6.00 Build 0)  -->
<svg version="1.1" id="Main" xmlns="http://www.w3.org/2000/svg" xmlns:xlink="http://www.w3.org/1999/xlink" x="0px" y="0px"
	 viewBox="0 0 64 64" style="enable-background:new 0 0 64 64;" xml:space="preserve">
<g>
	<g>
		<path d="M56,0H8C3.6,0,0,3.6,0,8v48c0,4.4,3.6,8,8,8h48c4.4,0,8-3.6,8-8V8C64,3.6,60.4,0,56,0z M42.9,41h-8.1l-8.3-16.1h-0.1
			c0.2,2.5,0.3,4.5,0.3,5.8V41h-5.5V18.2h8.1l8.3,15.9h0.1c-0.1-2.3-0.2-4.2-0.2-5.5V18.2h5.5V41z"/>
	</g>
</g>
</svg>
