<?xml version="1.0" encoding="utf-8"?>
<!-- Generator: Adobe Illustrator 21.0.0, SVG Export Plug-In . SVG Version: 6.00 Build 0)  -->
<svg version="1.1" id="Main" xmlns="http://www.w3.org/2000/svg" xmlns:xlink="http://www.w3.org/1999/xlink" x="0px" y="0px"
	 viewBox="0 0 64 64" style="enable-background:new 0 0 64 64;" xml:space="preserve">
<g>
	<g>
		<path d="M56,0H8C3.6,0,0,3.6,0,8v48c0,4.4,3.6,8,8,8h48c4.4,0,8-3.6,8-8V8C64,3.6,60.4,0,56,0z M42.5,41h-7.3l-2.2-10
			c-0.1-0.4-0.3-1.2-0.5-2.5c-0.2-1.2-0.4-2.3-0.5-3.1C32,26.2,31.8,27,31.6,28c-0.2,1-0.4,1.9-0.6,2.8c-0.2,0.8-0.9,4.3-2.3,10.3
			h-7.3l-5.7-22.8h6l2.5,11.5c0.6,2.5,0.9,4.5,1.2,6c0.1-1.1,0.4-2.5,0.7-4.3c0.3-1.8,0.7-3.3,1-4.5l2-8.6h5.7l2,8.6
			c0.3,1.4,0.7,3,1,4.8s0.6,3.2,0.7,4.1c0.1-1.2,0.5-3.2,1.1-6l2.5-11.5h6L42.5,41z"/>
	</g>
</g>
</svg>
