<?xml version="1.0" encoding="utf-8"?>
<!-- Generator: Adobe Illustrator 21.0.0, SVG Export Plug-In . SVG Version: 6.00 Build 0)  -->
<svg version="1.1" id="Main" xmlns="http://www.w3.org/2000/svg" xmlns:xlink="http://www.w3.org/1999/xlink" x="0px" y="0px"
	 viewBox="0 0 64 64" style="enable-background:new 0 0 64 64;" xml:space="preserve">
<g>
	<g>
		<path d="M56,0H8C3.6,0,0,3.6,0,8v48c0,4.4,3.6,8,8,8h48c4.4,0,8-3.6,8-8V8C64,3.6,60.4,0,56,0z M39,37.9c-2.1,2.1-5,3.1-8.9,3.1
			h-7.4V18.2h7.9c3.7,0,6.5,0.9,8.5,2.8c2,1.9,3,4.6,3,8.1C42.1,32.9,41.1,35.9,39,37.9z"/>
	</g>
	<g>
		<path d="M30.7,23.2h-1.8V36h1.4c1.9,0,3.3-0.5,4.1-1.6c0.9-1.1,1.3-2.8,1.3-5c0-2.1-0.4-3.6-1.2-4.7
			C33.6,23.7,32.4,23.2,30.7,23.2z"/>
	</g>
</g>
</svg>
