<?xml version="1.0" encoding="utf-8"?>
<!-- Generator: Adobe Illustrator 21.0.0, SVG Export Plug-In . SVG Version: 6.00 Build 0)  -->
<svg version="1.1" id="Main" xmlns="http://www.w3.org/2000/svg" xmlns:xlink="http://www.w3.org/1999/xlink" x="0px" y="0px"
	 viewBox="0 0 64 64" style="enable-background:new 0 0 64 64;" xml:space="preserve">
<g>
	<g>
		<path d="M31.9,31.7c-0.9,0.5-1.6,1-2,1.5c-0.4,0.5-0.6,1-0.6,1.6c0,0.6,0.2,1.2,0.7,1.6c0.5,0.4,1.1,0.6,1.9,0.6
			c1.8,0,2.8-0.7,2.8-2c0-0.5-0.2-1-0.6-1.5C33.7,32.9,33,32.3,31.9,31.7z"/>
	</g>
	<g>
		<path d="M32,26.3c0.7-0.4,1.2-0.8,1.5-1.2c0.3-0.4,0.4-0.8,0.4-1.2c0-0.5-0.2-0.9-0.5-1.2c-0.4-0.3-0.8-0.5-1.3-0.5
			c-0.5,0-1,0.2-1.3,0.5c-0.4,0.3-0.5,0.7-0.5,1.2C30.1,24.9,30.8,25.6,32,26.3z"/>
	</g>
	<g>
		<path d="M58,8H6c-3.3,0-6,2.7-6,6v36c0,3.3,2.7,6,6,6h52c3.3,0,6-2.7,6-6V14C64,10.7,61.3,8,58,8z M38.2,39.7
			c-1.5,1.1-3.5,1.7-6.2,1.7c-2.7,0-4.7-0.5-6.2-1.6c-1.4-1.1-2.1-2.7-2.1-4.7c0-1.3,0.3-2.5,1-3.4c0.6-0.9,1.7-1.8,3.2-2.5
			c-1.2-0.8-2.1-1.7-2.6-2.6c-0.6-0.9-0.8-2-0.8-3.1c0-1.8,0.7-3.1,2-4.1c1.4-1,3.3-1.5,5.7-1.5s4.3,0.5,5.6,1.5c1.3,1,2,2.3,2,4.1
			c0,1.2-0.3,2.3-0.9,3.2c-0.6,0.9-1.6,1.7-3,2.4c1.7,1,2.9,1.9,3.6,2.9c0.7,1,1,2,1,3.1C40.4,37,39.6,38.5,38.2,39.7z"/>
	</g>
</g>
</svg>
