<?xml version="1.0" encoding="utf-8"?>
<!-- Generator: Adobe Illustrator 21.0.0, SVG Export Plug-In . SVG Version: 6.00 Build 0)  -->
<svg version="1.1" id="Main" xmlns="http://www.w3.org/2000/svg" xmlns:xlink="http://www.w3.org/1999/xlink" x="0px" y="0px"
	 viewBox="0 0 64 64" style="enable-background:new 0 0 64 64;" xml:space="preserve">
<g>
	<g>
		<path d="M32.6,24.7c-0.3-1.3-0.5-2.3-0.6-2.8c-0.1,0.5-0.3,1.4-0.6,2.6c-0.3,1.2-0.9,3.6-1.8,7.2h4.9l-1-3.8
			C33.2,27.1,33,26,32.6,24.7z"/>
	</g>
	<g>
		<path d="M56,0H8C3.6,0,0,3.6,0,8v48c0,4.4,3.6,8,8,8h48c4.4,0,8-3.6,8-8V8C64,3.6,60.4,0,56,0z M36.9,41l-1.1-4.3h-7.4L27.2,41
			h-6.8l7.5-22.9h8.2L43.6,41H36.9z"/>
	</g>
</g>
</svg>
