<?xml version="1.0" encoding="utf-8"?>
<!-- Generator: Adobe Illustrator 21.0.0, SVG Export Plug-In . SVG Version: 6.00 Build 0)  -->
<svg version="1.1" id="Main" xmlns="http://www.w3.org/2000/svg" xmlns:xlink="http://www.w3.org/1999/xlink" x="0px" y="0px"
	 viewBox="0 0 64 64" style="enable-background:new 0 0 64 64;" xml:space="preserve">
<g>
	<g>
		<path d="M58,8H6c-3.3,0-6,2.7-6,6v36c0,3.3,2.7,6,6,6h52c3.3,0,6-2.7,6-6V14C64,10.7,61.3,8,58,8z M30.5,25.3h-5.6v3.3H30v3.7
			h-5.1v6.4h-4.6V21.6h10.1V25.3z M43.2,37.4c-1.1,1.1-2.5,1.6-4.5,1.6c-2,0-3.6-0.7-4.7-2s-1.7-3.1-1.7-5.5c0-2.4,0.3-4.3,1-5.8
			s1.7-2.6,3-3.3s3-1.1,4.9-1.1c0.7,0,1.5,0.1,2.4,0.2v3.6C42.9,25.1,42,25,41.1,25c-1.5,0-2.7,0.3-3.5,1s-1.2,1.8-1.2,3.3h0.1
			c0.7-1.3,1.8-2,3.4-2c1.5,0,2.7,0.5,3.5,1.5s1.3,2.3,1.3,4.1C44.8,34.8,44.2,36.3,43.2,37.4z"/>
	</g>
	<g>
		<path d="M38.7,30.9c-0.5,0-1,0.2-1.3,0.5s-0.5,0.8-0.5,1.3c0,0.8,0.2,1.4,0.5,1.8s0.7,0.7,1.3,0.7c0.5,0,0.9-0.2,1.2-0.6
			s0.5-1,0.5-1.8C40.3,31.6,39.7,30.9,38.7,30.9z"/>
	</g>
</g>
</svg>
