<?xml version="1.0" encoding="utf-8"?>
<!-- Generator: Adobe Illustrator 21.0.0, SVG Export Plug-In . SVG Version: 6.00 Build 0)  -->
<svg version="1.1" id="Main" xmlns="http://www.w3.org/2000/svg" xmlns:xlink="http://www.w3.org/1999/xlink" x="0px" y="0px"
	 viewBox="0 0 64 64" style="enable-background:new 0 0 64 64;" xml:space="preserve">
<g>
	<g>
		<path d="M56,0H8C3.6,0,0,3.6,0,8v48c0,4.4,3.6,8,8,8h48c4.4,0,8-3.6,8-8V8C64,3.6,60.4,0,56,0z M31.1,25.5c0.5,0.4,1.7,1,3.8,1.9
			c2,0.9,3.3,1.8,4.1,2.9s1.1,2.3,1.1,3.8c0,1.4-0.4,2.7-1.1,3.8c-0.7,1.1-1.8,2-3.1,2.6c-1.4,0.6-2.9,0.9-4.8,0.9
			c-1.5,0-2.8-0.1-3.8-0.3s-2.1-0.6-3.2-1.1v-5.5c1.2,0.6,2.4,1.1,3.7,1.4c1.3,0.3,2.4,0.5,3.5,0.5c0.9,0,1.6-0.2,2-0.5
			c0.4-0.3,0.6-0.7,0.6-1.2c0-0.3-0.1-0.6-0.3-0.8s-0.4-0.5-0.8-0.7c-0.4-0.2-1.4-0.7-3-1.5c-1.5-0.7-2.6-1.3-3.4-2
			c-0.7-0.6-1.3-1.4-1.7-2.2c-0.4-0.8-0.5-1.8-0.5-2.9c0-2.1,0.8-3.7,2.3-4.9c1.5-1.2,3.6-1.8,6.3-1.8c2.4,0,4.8,0.5,7.2,1.6
			l-1.9,4.8c-2.1-1-4-1.5-5.5-1.5c-0.8,0-1.4,0.1-1.8,0.4c-0.4,0.3-0.5,0.6-0.5,1C30.5,24.7,30.7,25.1,31.1,25.5z"/>
	</g>
</g>
</svg>
