<?xml version="1.0" encoding="utf-8"?>
<!-- Generator: Adobe Illustrator 21.0.0, SVG Export Plug-In . SVG Version: 6.00 Build 0)  -->
<svg version="1.1" id="Main" xmlns="http://www.w3.org/2000/svg" xmlns:xlink="http://www.w3.org/1999/xlink" x="0px" y="0px"
	 viewBox="0 0 64 64" style="enable-background:new 0 0 64 64;" xml:space="preserve">
<g>
	<g>
		<path d="M58,8H6c-3.3,0-6,2.7-6,6v36c0,3.3,2.7,6,6,6h52c3.3,0,6-2.7,6-6V14C64,10.7,61.3,8,58,8z M23.4,25.3h-5.6v3.3H23v3.7
			h-5.1v6.4h-4.6V21.6h10.1V25.3z M35.4,38.8h-4.7v-9.1c0-1.1,0-2.1,0.1-3c-0.3,0.4-0.6,0.7-1.1,1.1l-1.9,1.6l-2.4-3l5.9-4.8h4.2
			V38.8z M51.6,38.8H39.2v-3l4.2-4.2c1.2-1.3,2-2.1,2.3-2.6s0.6-0.8,0.8-1.2s0.2-0.7,0.2-1c0-0.4-0.1-0.8-0.4-1.1s-0.7-0.4-1.2-0.4
			c-0.5,0-1.1,0.2-1.6,0.5s-1.2,0.8-1.9,1.4l-2.5-3c0.9-0.8,1.6-1.4,2.2-1.7s1.3-0.6,2-0.8s1.5-0.3,2.4-0.3c1.1,0,2.1,0.2,3,0.6
			s1.5,0.9,2,1.7s0.7,1.5,0.7,2.4c0,0.7-0.1,1.3-0.3,1.9s-0.4,1.1-0.8,1.7s-0.8,1.1-1.4,1.7s-1.8,1.8-3.7,3.5v0.1h6.5V38.8z"/>
	</g>
</g>
</svg>
