<?xml version="1.0" encoding="utf-8"?>
<!-- Generator: Adobe Illustrator 21.0.0, SVG Export Plug-In . SVG Version: 6.00 Build 0)  -->
<svg version="1.1" id="Main" xmlns="http://www.w3.org/2000/svg" xmlns:xlink="http://www.w3.org/1999/xlink" x="0px" y="0px"
	 viewBox="0 0 64 64" style="enable-background:new 0 0 64 64;" xml:space="preserve">
<g>
	<g>
		<path d="M38.3,25.2c-0.5,0-0.9,0.2-1.2,0.6s-0.5,1-0.5,1.8c0,0.6,0.1,1.2,0.4,1.5s0.7,0.6,1.3,0.6c0.5,0,0.9-0.2,1.3-0.6
			s0.6-0.8,0.6-1.3c0-0.7-0.2-1.3-0.5-1.8S38.8,25.2,38.3,25.2z"/>
	</g>
	<g>
		<path d="M58,8H6c-3.3,0-6,2.7-6,6v36c0,3.3,2.7,6,6,6h52c3.3,0,6-2.7,6-6V14C64,10.7,61.3,8,58,8z M30.5,25.3h-5.6v3.3H30v3.7
			h-5.1v6.4h-4.6V21.6h10.1V25.3z M42.5,36.8c-1.4,1.5-3.8,2.3-6.9,2.3c-1,0-1.8,0-2.4-0.1v-3.7c0.7,0.1,1.3,0.2,2,0.2
			c1.7,0,2.9-0.3,3.8-1s1.4-1.8,1.5-3.2h-0.1c-0.3,0.6-0.6,1-0.9,1.2s-0.7,0.4-1.1,0.6s-1,0.2-1.6,0.2c-1.5,0-2.6-0.5-3.5-1.5
			s-1.3-2.4-1.3-4.1c0-1.9,0.5-3.4,1.6-4.5s2.6-1.6,4.4-1.6c2.1,0,3.7,0.7,4.9,2.1s1.7,3.4,1.7,5.9C44.7,32.8,44,35.3,42.5,36.8z"/>
	</g>
</g>
</svg>
