<?xml version="1.0" encoding="utf-8"?>
<!-- Generator: Adobe Illustrator 21.0.0, SVG Export Plug-In . SVG Version: 6.00 Build 0)  -->
<svg version="1.1" id="Main" xmlns="http://www.w3.org/2000/svg" xmlns:xlink="http://www.w3.org/1999/xlink" x="0px" y="0px"
	 viewBox="0 0 64 64" style="enable-background:new 0 0 64 64;" xml:space="preserve">
<g>
	<g>
		<path d="M11.7,27.7h-0.9v3h0.6c0.5,0,0.9-0.1,1.2-0.4c0.3-0.3,0.5-0.7,0.5-1.2C13.1,28.2,12.6,27.7,11.7,27.7z"/>
	</g>
	<g>
		<path d="M20.4,39c0,0.3,0.2,0.5,0.5,0.7s0.7,0.3,1.2,0.3c0.8,0,1.5-0.1,2-0.3c0.5-0.2,0.8-0.5,0.8-0.8c0-0.3-0.2-0.4-0.5-0.6
			s-0.7-0.2-1.3-0.2h-1.3c-0.4,0-0.7,0.1-0.9,0.3C20.5,38.5,20.4,38.8,20.4,39z"/>
	</g>
	<g>
		<path d="M52.5,30.3c-0.5,0-0.9,0.2-1.1,0.5c-0.2,0.4-0.3,0.9-0.3,1.6v0.3c0,0.9,0.1,1.5,0.3,1.9s0.6,0.6,1.1,0.6
			c0.4,0,0.8-0.2,1-0.6s0.3-1,0.3-1.9c0-0.9-0.1-1.5-0.3-1.8S53,30.3,52.5,30.3z"/>
	</g>
	<g>
		<path d="M22.5,29.5c-0.7,0-1.1,0.5-1.1,1.5s0.4,1.5,1.1,1.5c0.3,0,0.6-0.1,0.8-0.4c0.2-0.3,0.3-0.6,0.3-1.1
			C23.5,30.1,23.2,29.5,22.5,29.5z"/>
	</g>
	<g>
		<path d="M56.5,4h-49C3.4,4,0,7.4,0,11.5v41C0,56.6,3.4,60,7.5,60h49c4.1,0,7.5-3.4,7.5-7.5v-41C64,7.4,60.6,4,56.5,4z M15.4,32.3
			c-0.8,0.8-2,1.2-3.6,1.2h-1v4.3H7.3V24.9h4.4c1.6,0,2.8,0.4,3.7,1.1s1.2,1.7,1.2,3C16.6,30.4,16.2,31.5,15.4,32.3z M27.9,29.5
			L26.5,30c0.2,0.3,0.3,0.7,0.3,1.2c0,1.1-0.4,1.9-1.1,2.5c-0.8,0.6-1.9,0.9-3.4,0.9c-0.4,0-0.7,0-0.9-0.1c-0.1,0.2-0.1,0.3-0.1,0.4
			c0,0.2,0.1,0.3,0.4,0.4s0.6,0.1,1.1,0.1h1.7c2.2,0,3.3,0.9,3.3,2.8c0,1.2-0.5,2.2-1.6,2.8c-1,0.7-2.5,1-4.4,1
			c-1.4,0-2.5-0.2-3.3-0.7c-0.8-0.5-1.1-1.1-1.1-2c0-1.2,0.7-2,2.2-2.3c-0.3-0.1-0.6-0.3-0.8-0.6c-0.2-0.3-0.3-0.6-0.3-0.9
			c0-0.3,0.1-0.6,0.3-0.8s0.5-0.5,1.1-0.8c-0.5-0.2-0.9-0.6-1.2-1.1c-0.3-0.5-0.4-1.1-0.4-1.8c0-1.1,0.4-1.9,1.1-2.5
			s1.8-0.9,3.2-0.9c0.2,0,0.5,0,0.9,0.1s0.8,0.1,1,0.1h3.5V29.5z M45.2,32.7c0,1.7-0.5,3-1.4,3.9c-1,0.9-2.3,1.4-4.1,1.4
			c-1.8,0-3.1-0.4-4-1.3c-0.9-0.9-1.4-2.2-1.4-3.9v-7.8h3.5v7.5c0,0.9,0.2,1.6,0.5,2s0.8,0.6,1.5,0.6c0.7,0,1.2-0.2,1.5-0.6
			c0.3-0.4,0.5-1.1,0.5-2v-7.5h3.5V32.7z M56.3,36.6c-0.7,0.9-1.5,1.4-2.7,1.4c-0.5,0-1-0.1-1.4-0.3s-0.8-0.5-1.2-0.9H51
			c0.1,0.7,0.2,1.1,0.2,1.3v4h-3.4V27.8h2.8l0.5,1.3h0.2c0.6-1,1.5-1.4,2.6-1.4c1.1,0,2,0.5,2.6,1.4s0.9,2.2,0.9,3.8
			C57.3,34.4,57,35.6,56.3,36.6z"/>
	</g>
</g>
</svg>
