<?xml version="1.0" encoding="utf-8"?>
<!-- Generator: Adobe Illustrator 21.0.0, SVG Export Plug-In . SVG Version: 6.00 Build 0)  -->
<svg version="1.1" id="Main" xmlns="http://www.w3.org/2000/svg" xmlns:xlink="http://www.w3.org/1999/xlink" x="0px" y="0px"
	 viewBox="0 0 64 64" style="enable-background:new 0 0 64 64;" xml:space="preserve">
<g>
	<g>
		<path d="M56,0H8C3.6,0,0,3.6,0,8v48c0,4.4,3.6,8,8,8h48c4.4,0,8-3.6,8-8V8C64,3.6,60.4,0,56,0z M36,46.5l-4-5.1l0,0v0l0,0
			c-3.6,0-6.3-1-8.2-3c-1.9-2-2.9-4.9-2.9-8.8c0-3.8,1-6.7,2.9-8.7c1.9-2,4.7-3,8.3-3c3.6,0,6.4,1,8.3,3c1.9,2,2.8,4.9,2.8,8.8
			c0,5.2-1.6,8.7-4.9,10.5l5.6,6.4H36z"/>
	</g>
	<g>
		<path d="M32,22.9c-3.1,0-4.6,2.2-4.6,6.7c0,4.4,1.5,6.6,4.6,6.6c1.6,0,2.7-0.5,3.5-1.6c0.8-1.1,1.1-2.7,1.1-5c0-2.3-0.4-4-1.1-5.1
			C34.7,23.4,33.5,22.9,32,22.9z"/>
	</g>
</g>
</svg>
