<?xml version="1.0" encoding="utf-8"?>
<!-- Generator: Adobe Illustrator 21.0.0, SVG Export Plug-In . SVG Version: 6.00 Build 0)  -->
<svg version="1.1" id="Main" xmlns="http://www.w3.org/2000/svg" xmlns:xlink="http://www.w3.org/1999/xlink" x="0px" y="0px"
	 viewBox="0 0 64 64" style="enable-background:new 0 0 64 64;" xml:space="preserve">
<g>
	<g>
		<path d="M56,0H8C3.6,0,0,3.6,0,8v48c0,4.4,3.6,8,8,8h48c4.4,0,8-3.6,8-8V8C64,3.6,60.4,0,56,0z M35.6,41h-7.3l-7.5-22.8h6.9
			l3.1,11.6c0.6,2.6,1,4.4,1.1,5.4c0.1-0.7,0.2-1.6,0.4-2.7s0.4-2,0.6-2.6l3.2-11.6h6.9L35.6,41z"/>
	</g>
</g>
</svg>
