<?xml version="1.0" encoding="utf-8"?>
<!-- Generator: Adobe Illustrator 21.0.0, SVG Export Plug-In . SVG Version: 6.00 Build 0)  -->
<svg version="1.1" id="Main" xmlns="http://www.w3.org/2000/svg" xmlns:xlink="http://www.w3.org/1999/xlink" x="0px" y="0px"
	 viewBox="0 0 64 64" style="enable-background:new 0 0 64 64;" xml:space="preserve">
<g>
	<g>
		<path d="M24.3,30.2c-0.5,0-0.9,0.2-1.1,0.6s-0.3,1.1-0.3,1.9s0.1,1.5,0.3,2s0.6,0.7,1.2,0.7c0.5,0,0.9-0.2,1.1-0.7
			c0.2-0.4,0.3-1.1,0.3-2c0-0.8-0.1-1.5-0.3-1.9S24.9,30.2,24.3,30.2z"/>
	</g>
	<g>
		<path d="M53.9,30c-0.4,0-0.7,0.1-1,0.4c-0.3,0.3-0.4,0.7-0.5,1.2h3c0-0.5-0.1-0.9-0.4-1.2C54.6,30.1,54.3,30,53.9,30z"/>
	</g>
	<g>
		<path d="M56.5,4h-49C3.4,4,0,7.4,0,11.5v41C0,56.6,3.4,60,7.5,60h49c4.1,0,7.5-3.4,7.5-7.5v-41C64,7.4,60.6,4,56.5,4z M17.2,37.8
			h-3.5v-5.2h-4v5.2H6.2V24.9h3.5v4.8h4v-4.8h3.5V37.8z M28,36.6c-0.9,0.9-2.1,1.4-3.7,1.4c-1.5,0-2.7-0.5-3.6-1.4
			c-0.9-0.9-1.3-2.2-1.3-3.8c0-1.6,0.4-2.9,1.3-3.8c0.9-0.9,2.1-1.3,3.7-1.3c1,0,1.8,0.2,2.6,0.6s1.3,1,1.7,1.8
			c0.4,0.8,0.6,1.7,0.6,2.7C29.3,34.4,28.9,35.7,28,36.6z M46.9,37.8h-3.4v-5.4c0-0.7-0.1-1.2-0.3-1.5c-0.2-0.3-0.5-0.5-0.9-0.5
			c-0.5,0-0.9,0.2-1.2,0.7s-0.4,1.2-0.4,2.1v4.6h-3.4v-5.4c0-0.7-0.1-1.2-0.3-1.5s-0.5-0.5-0.9-0.5c-0.5,0-0.9,0.2-1.2,0.7
			s-0.4,1.3-0.4,2.4v4.4h-3.4v-10h2.6l0.4,1.2h0.2c0.3-0.5,0.6-0.8,1.1-1c0.5-0.2,1.1-0.4,1.7-0.4c1.4,0,2.4,0.4,3,1.3h0.3
			c0.3-0.4,0.7-0.7,1.2-1c0.5-0.2,1.1-0.3,1.7-0.3c1.2,0,2,0.3,2.6,0.9s0.8,1.5,0.8,2.8V37.8z M58.4,33.7h-6.1c0,0.6,0.2,1,0.6,1.3
			c0.4,0.3,0.9,0.5,1.6,0.5c0.6,0,1.2-0.1,1.7-0.2c0.5-0.1,1.1-0.3,1.6-0.6v2.5c-0.5,0.3-1.1,0.5-1.7,0.6s-1.3,0.2-2.1,0.2
			c-1.7,0-2.9-0.4-3.9-1.3c-0.9-0.9-1.4-2.1-1.4-3.8c0-1.7,0.4-3,1.3-3.9s2.1-1.3,3.6-1.3c1.5,0,2.7,0.4,3.5,1.2
			c0.8,0.8,1.2,1.9,1.2,3.4V33.7z"/>
	</g>
</g>
</svg>
