<?xml version="1.0" encoding="utf-8"?>
<!-- Generator: Adobe Illustrator 21.0.0, SVG Export Plug-In . SVG Version: 6.00 Build 0)  -->
<svg version="1.1" id="Main" xmlns="http://www.w3.org/2000/svg" xmlns:xlink="http://www.w3.org/1999/xlink" x="0px" y="0px"
	 viewBox="0 0 64 64" style="enable-background:new 0 0 64 64;" xml:space="preserve">
<g>
	<g>
		<path d="M37.8,30c-0.4,0-0.7,0.1-1,0.4c-0.3,0.3-0.4,0.7-0.5,1.2h3c0-0.5-0.1-0.9-0.4-1.2C38.6,30.1,38.3,30,37.8,30z"/>
	</g>
	<g>
		<path d="M56.5,4h-49C3.4,4,0,7.4,0,11.5v41C0,56.6,3.4,60,7.5,60h49c4.1,0,7.5-3.4,7.5-7.5v-41C64,7.4,60.6,4,56.5,4z M9,37.8H5.5
			V24.9H9V37.8z M21.3,37.8h-3.4v-5.4c0-0.7-0.1-1.2-0.3-1.5c-0.2-0.3-0.5-0.5-0.9-0.5c-0.6,0-1,0.2-1.3,0.7S15,32.3,15,33.4v4.4
			h-3.4v-10h2.6l0.4,1.2h0.2c0.3-0.5,0.7-0.8,1.2-1.1c0.5-0.2,1.1-0.4,1.8-0.4c1.1,0,2,0.3,2.6,1c0.6,0.6,0.9,1.5,0.9,2.7V37.8z
			 M30.2,37.1c-0.7,0.5-1.8,0.8-3.1,0.8c-0.7,0-1.4,0-1.9-0.1s-1.1-0.2-1.7-0.4v-2.8c0.5,0.2,1.1,0.4,1.8,0.6
			c0.6,0.2,1.2,0.2,1.7,0.2c0.7,0,1.1-0.2,1.1-0.5c0-0.2-0.1-0.3-0.3-0.5c-0.2-0.1-0.8-0.4-1.8-0.8c-0.9-0.4-1.6-0.8-1.9-1.3
			s-0.5-1.1-0.5-1.8c0-0.9,0.4-1.6,1.1-2.2s1.7-0.8,3-0.8c0.7,0,1.3,0.1,1.8,0.2c0.6,0.1,1.2,0.4,1.8,0.6l-0.9,2.2
			c-0.5-0.2-0.9-0.4-1.5-0.5S27.9,30,27.6,30c-0.6,0-0.8,0.1-0.8,0.4c0,0.2,0.1,0.3,0.3,0.4c0.2,0.1,0.8,0.4,1.7,0.7
			c0.7,0.3,1.2,0.6,1.6,0.8c0.3,0.3,0.6,0.6,0.8,1c0.2,0.4,0.2,0.8,0.2,1.4C31.3,35.8,31,36.6,30.2,37.1z M42.4,33.7h-6.1
			c0,0.6,0.2,1,0.6,1.3c0.4,0.3,0.9,0.5,1.6,0.5c0.6,0,1.2-0.1,1.7-0.2c0.5-0.1,1.1-0.3,1.6-0.6v2.5c-0.5,0.3-1.1,0.5-1.7,0.6
			s-1.3,0.2-2.1,0.2c-1.7,0-2.9-0.4-3.9-1.3c-0.9-0.9-1.4-2.1-1.4-3.8c0-1.7,0.4-3,1.3-3.9s2.1-1.3,3.6-1.3c1.5,0,2.7,0.4,3.5,1.2
			c0.8,0.8,1.2,1.9,1.2,3.4V33.7z M51.1,31c-0.3-0.1-0.7-0.1-1.2-0.1c-0.8,0-1.3,0.2-1.6,0.5s-0.5,0.8-0.5,1.5v4.9h-3.4v-10h2.6
			l0.5,1.6h0.2c0.3-0.5,0.7-1,1.2-1.3c0.5-0.3,1-0.5,1.6-0.5c0.3,0,0.6,0,0.9,0.1l0.2,0L51.1,31z M59.3,37.4
			c-0.5,0.2-0.9,0.3-1.3,0.4c-0.4,0.1-0.9,0.1-1.5,0.1c-1.2,0-2-0.3-2.5-0.8s-0.8-1.4-0.8-2.6v-4.1h-1.2V29l1.5-1.1l0.9-2.1h2.3v2
			h2.4v2.6h-2.4v3.9c0,0.6,0.3,1,0.9,1c0.5,0,1-0.1,1.7-0.3V37.4z"/>
	</g>
</g>
</svg>
