<?xml version="1.0" encoding="utf-8"?>
<!-- Generator: Adobe Illustrator 21.0.0, SVG Export Plug-In . SVG Version: 6.00 Build 0)  -->
<svg version="1.1" id="Main" xmlns="http://www.w3.org/2000/svg" xmlns:xlink="http://www.w3.org/1999/xlink" x="0px" y="0px"
	 viewBox="0 0 64 64" style="enable-background:new 0 0 64 64;" xml:space="preserve">
<g>
	<g>
		<path d="M58,8H6c-3.3,0-6,2.7-6,6v36c0,3.3,2.7,6,6,6h52c3.3,0,6-2.7,6-6V14C64,10.7,61.3,8,58,8z M37.6,39.3c-1.5,1.4-3.9,2-7,2
			c-2.7,0-4.8-0.4-6.5-1.2V35c0.9,0.4,1.9,0.8,3.1,1c1.1,0.3,2.1,0.4,2.9,0.4c1.1,0,2-0.2,2.6-0.7c0.6-0.5,0.9-1.2,0.9-2.1
			c0-0.9-0.3-1.6-0.9-2c-0.6-0.5-1.6-0.7-2.8-0.7c-1,0-2,0.2-3.1,0.5l-2.3-1.1l0.9-12.1h13v5.1h-7.8l-0.3,3c0.8-0.2,1.4-0.2,1.7-0.3
			s0.7,0,1,0c1.3,0,2.5,0.3,3.6,0.9c1.1,0.6,1.9,1.5,2.5,2.6c0.6,1.1,0.9,2.4,0.9,3.9C39.9,36,39.1,37.9,37.6,39.3z"/>
	</g>
</g>
</svg>
