<?xml version="1.0" encoding="utf-8"?>
<!-- Generator: Adobe Illustrator 21.0.0, SVG Export Plug-In . SVG Version: 6.00 Build 0)  -->
<svg version="1.1" id="Main" xmlns="http://www.w3.org/2000/svg" xmlns:xlink="http://www.w3.org/1999/xlink" x="0px" y="0px"
	 viewBox="0 0 64 64" style="enable-background:new 0 0 64 64;" xml:space="preserve">
<g>
	<g>
		<path d="M58,8H6c-3.3,0-6,2.7-6,6v36c0,3.3,2.7,6,6,6h52c3.3,0,6-2.7,6-6V14C64,10.7,61.3,8,58,8z M30.5,25.3h-5.6v3.3H30v3.7
			h-5.1v6.4h-4.6V21.6h10.1V25.3z M42.6,37.6c-1.3,0.9-3,1.4-5.3,1.4c-0.9,0-1.8-0.1-2.6-0.2s-1.6-0.4-2.5-0.7v-3.8
			c0.8,0.4,1.5,0.7,2.3,0.8s1.5,0.3,2.2,0.3c1,0,1.8-0.1,2.2-0.4s0.7-0.7,0.7-1.3c0-0.5-0.1-0.8-0.4-1.1s-0.6-0.4-1.2-0.6
			s-1.2-0.2-2.1-0.2h-1.1v-3.5H36c2.4,0,3.5-0.6,3.5-1.8c0-0.5-0.2-0.8-0.5-1s-0.8-0.3-1.4-0.3c-1.1,0-2.2,0.4-3.4,1.1l-1.9-3.1
			c0.9-0.6,1.8-1.1,2.8-1.3s2-0.4,3.3-0.4c1.8,0,3.2,0.4,4.2,1.1s1.5,1.7,1.5,2.9c0,1.1-0.3,2-1,2.7s-1.6,1.3-2.8,1.7v0.1
			c2.9,0.4,4.3,1.7,4.3,4.1C44.5,35.5,43.9,36.7,42.6,37.6z"/>
	</g>
</g>
</svg>
