<?xml version="1.0" encoding="utf-8"?>
<!-- Generator: Adobe Illustrator 21.0.0, SVG Export Plug-In . SVG Version: 6.00 Build 0)  -->
<svg version="1.1" id="Main" xmlns="http://www.w3.org/2000/svg" xmlns:xlink="http://www.w3.org/1999/xlink" x="0px" y="0px"
	 viewBox="0 0 64 64" style="enable-background:new 0 0 64 64;" xml:space="preserve">
<g>
	<g>
		<path d="M58,8H6c-3.3,0-6,2.7-6,6v36c0,3.3,2.7,6,6,6h52c3.3,0,6-2.7,6-6V14C64,10.7,61.3,8,58,8z M40.2,41H23.6V37l5.6-5.6
			c1.6-1.7,2.6-2.8,3.1-3.4c0.5-0.6,0.8-1.1,1-1.6c0.2-0.4,0.3-0.9,0.3-1.4c0-0.6-0.2-1.1-0.6-1.4c-0.4-0.3-0.9-0.5-1.6-0.5
			c-0.7,0-1.4,0.2-2.2,0.6c-0.7,0.4-1.6,1-2.5,1.8l-3.4-4c1.2-1.1,2.2-1.8,3-2.3c0.8-0.5,1.7-0.8,2.6-1c0.9-0.2,2-0.4,3.2-0.4
			c1.5,0,2.8,0.3,4,0.8c1.2,0.5,2.1,1.3,2.7,2.2c0.6,1,1,2,1,3.2c0,0.9-0.1,1.7-0.3,2.5c-0.2,0.8-0.6,1.5-1,2.2s-1.1,1.5-1.9,2.3
			c-0.8,0.8-2.4,2.4-5,4.6v0.2h8.6V41z"/>
	</g>
</g>
</svg>
