<?xml version="1.0" encoding="utf-8"?>
<!-- Generator: Adobe Illustrator 21.0.0, SVG Export Plug-In . SVG Version: 6.00 Build 0)  -->
<svg version="1.1" id="Main" xmlns="http://www.w3.org/2000/svg" xmlns:xlink="http://www.w3.org/1999/xlink" x="0px" y="0px"
	 viewBox="0 0 64 64" style="enable-background:new 0 0 64 64;" xml:space="preserve">
<g>
	<g>
		<path d="M58,8H6c-3.3,0-6,2.7-6,6v36c0,3.3,2.7,6,6,6h52c3.3,0,6-2.7,6-6V14C64,10.7,61.3,8,58,8z M30.5,25.3h-5.6v3.3H30v3.7
			h-5.1v6.4h-4.6V21.6h10.1V25.3z M43.1,37.7C42,38.6,40.4,39,38.5,39c-2,0-3.6-0.4-4.6-1.2s-1.6-2-1.6-3.5c0-1,0.2-1.8,0.7-2.5
			s1.3-1.3,2.4-1.9c-0.9-0.6-1.6-1.3-2-2s-0.6-1.5-0.6-2.3c0-1.3,0.5-2.3,1.5-3.1s2.4-1.1,4.2-1.1s3.2,0.4,4.2,1.1s1.5,1.8,1.5,3.1
			c0,0.9-0.2,1.7-0.7,2.4s-1.2,1.3-2.2,1.8c1.3,0.7,2.2,1.4,2.7,2.2s0.8,1.5,0.8,2.3C44.7,35.7,44.2,36.9,43.1,37.7z"/>
	</g>
	<g>
		<path d="M38.4,31.8c-0.7,0.4-1.2,0.7-1.5,1.1s-0.5,0.8-0.5,1.2c0,0.5,0.2,0.9,0.5,1.2s0.8,0.4,1.4,0.4c1.4,0,2.1-0.5,2.1-1.5
			c0-0.4-0.2-0.8-0.5-1.1S39.2,32.2,38.4,31.8z"/>
	</g>
	<g>
		<path d="M38.4,27.8c0.6-0.3,0.9-0.6,1.1-0.9s0.3-0.6,0.3-0.9c0-0.4-0.1-0.7-0.4-0.9s-0.6-0.3-1-0.3c-0.4,0-0.7,0.1-1,0.3
			s-0.4,0.5-0.4,0.9C37.1,26.6,37.5,27.2,38.4,27.8z"/>
	</g>
</g>
</svg>
