<?xml version="1.0" encoding="utf-8"?>
<!-- Generator: Adobe Illustrator 21.0.0, SVG Export Plug-In . SVG Version: 6.00 Build 0)  -->
<svg version="1.1" id="Main" xmlns="http://www.w3.org/2000/svg" xmlns:xlink="http://www.w3.org/1999/xlink" x="0px" y="0px"
	 viewBox="0 0 64 64" style="enable-background:new 0 0 64 64;" xml:space="preserve">
<g>
	<g>
		<path d="M32.1,23.2h-1.6v5.3h1.1c0.9,0,1.7-0.3,2.2-0.8c0.5-0.5,0.8-1.2,0.8-2.2C34.7,23.9,33.8,23.2,32.1,23.2z"/>
	</g>
	<g>
		<path d="M56,0H8C3.6,0,0,3.6,0,8v48c0,4.4,3.6,8,8,8h48c4.4,0,8-3.6,8-8V8C64,3.6,60.4,0,56,0z M38.7,31.4
			c-1.5,1.4-3.6,2.1-6.4,2.1h-1.7V41h-6.2V18.2h7.9c2.9,0,5.1,0.6,6.5,1.9c1.4,1.3,2.2,3.1,2.2,5.4C40.9,28,40.2,30,38.7,31.4z"/>
	</g>
</g>
</svg>
