<?xml version="1.0" encoding="utf-8"?>
<!-- Generator: Adobe Illustrator 21.0.0, SVG Export Plug-In . SVG Version: 6.00 Build 0)  -->
<svg version="1.1" id="Main" xmlns="http://www.w3.org/2000/svg" xmlns:xlink="http://www.w3.org/1999/xlink" x="0px" y="0px"
	 viewBox="0 0 64 64" style="enable-background:new 0 0 64 64;" xml:space="preserve">
<g>
	<g>
		<path d="M42.8,30.4c-0.5,0-0.8,0.2-1,0.6s-0.4,1-0.4,1.8c0,0.8,0.1,1.4,0.4,1.8s0.6,0.6,1.1,0.6c0.6,0,0.9-0.2,1.2-0.5
			s0.3-0.9,0.4-1.6v-0.3c0-0.9-0.1-1.5-0.4-1.9S43.4,30.4,42.8,30.4z"/>
	</g>
	<g>
		<path d="M56.5,4h-49C3.4,4,0,7.4,0,11.5v41C0,56.6,3.4,60,7.5,60h49c4.1,0,7.5-3.4,7.5-7.5v-41C64,7.4,60.6,4,56.5,4z M24.3,27.7
			h-4.2v2H24v2.8h-3.8v2.4h4.2v2.8h-7.6V24.9h7.6V27.7z M36,37.8h-3.4v-5.4c0-0.7-0.1-1.2-0.3-1.5s-0.5-0.5-0.9-0.5
			c-0.6,0-1,0.2-1.3,0.7s-0.4,1.3-0.4,2.4v4.4h-3.4v-10h2.6l0.4,1.2h0.2c0.3-0.5,0.7-0.8,1.2-1.1s1.1-0.4,1.8-0.4c1.1,0,2,0.3,2.6,1
			s0.9,1.5,0.9,2.7V37.8z M47.6,37.8H45l-0.7-1.3h-0.1c-0.6,1-1.5,1.4-2.6,1.4c-0.7,0-1.3-0.2-1.9-0.6s-0.9-1-1.2-1.8
			s-0.4-1.7-0.4-2.8c0-1.6,0.3-2.9,1-3.8s1.5-1.4,2.7-1.4c0.6,0,1,0.1,1.5,0.3s0.8,0.6,1.1,1.1h0.1c-0.1-0.8-0.2-1.6-0.2-2.3v-2.7
			h3.5V37.8z"/>
	</g>
</g>
</svg>
