<?xml version="1.0" encoding="utf-8"?>
<!-- Generator: Adobe Illustrator 21.0.0, SVG Export Plug-In . SVG Version: 6.00 Build 0)  -->
<svg version="1.1" id="Main" xmlns="http://www.w3.org/2000/svg" xmlns:xlink="http://www.w3.org/1999/xlink" x="0px" y="0px"
	 viewBox="0 0 64 64" style="enable-background:new 0 0 64 64;" xml:space="preserve">
<g>
	<g>
		<path d="M58,8H6c-3.3,0-6,2.7-6,6v36c0,3.3,2.7,6,6,6h52c3.3,0,6-2.7,6-6V14C64,10.7,61.3,8,58,8z M30.5,25.3h-5.6v3.3H30v3.7
			h-5.1v6.4h-4.6V21.6h10.1V25.3z M42.5,38.8h-4.7v-9.1c0-1.1,0-2.1,0.1-3c-0.3,0.4-0.6,0.7-1.1,1.1l-1.9,1.6l-2.4-3l5.9-4.8h4.2
			V38.8z"/>
	</g>
</g>
</svg>
