<?xml version="1.0" encoding="utf-8"?>
<!-- Generator: Adobe Illustrator 21.0.0, SVG Export Plug-In . SVG Version: 6.00 Build 0)  -->
<svg version="1.1" id="Main" xmlns="http://www.w3.org/2000/svg" xmlns:xlink="http://www.w3.org/1999/xlink" x="0px" y="0px"
	 viewBox="0 0 64 64" style="enable-background:new 0 0 64 64;" xml:space="preserve">
<g>
	<g>
		<path d="M58,8H6c-3.3,0-6,2.7-6,6v36c0,3.3,2.7,6,6,6h52c3.3,0,6-2.7,6-6V14C64,10.7,61.3,8,58,8z M38.3,39.2
			c-1.4,1.5-3.4,2.2-5.9,2.2c-2.7,0-4.8-0.9-6.3-2.6c-1.5-1.8-2.3-4.2-2.3-7.3c0-3.2,0.5-5.8,1.4-7.7c0.9-2,2.3-3.4,4-4.4
			c1.8-0.9,4-1.4,6.6-1.4c0.9,0,2,0.1,3.3,0.3v4.8c-1-0.2-2.2-0.3-3.4-0.3c-2.1,0-3.6,0.5-4.6,1.4c-1,0.9-1.6,2.4-1.7,4.4h0.2
			c0.9-1.8,2.4-2.7,4.5-2.7c2,0,3.6,0.7,4.7,2c1.1,1.3,1.7,3.1,1.7,5.5C40.4,35.7,39.7,37.7,38.3,39.2z"/>
	</g>
	<g>
		<path d="M32.3,30.6c-0.7,0-1.3,0.2-1.7,0.7c-0.4,0.5-0.7,1.1-0.7,1.8c0,1,0.2,1.8,0.6,2.5c0.4,0.6,1,1,1.7,1
			c0.7,0,1.2-0.2,1.6-0.7c0.4-0.5,0.6-1.3,0.6-2.4C34.4,31.5,33.7,30.6,32.3,30.6z"/>
	</g>
</g>
</svg>
