<?xml version="1.0" encoding="utf-8"?>
<!-- Generator: Adobe Illustrator 21.0.0, SVG Export Plug-In . SVG Version: 6.00 Build 0)  -->
<svg version="1.1" id="Main" xmlns="http://www.w3.org/2000/svg" xmlns:xlink="http://www.w3.org/1999/xlink" x="0px" y="0px"
	 viewBox="0 0 64 64" style="enable-background:new 0 0 64 64;" xml:space="preserve">
<g>
	<g>
		<path d="M58,8H6c-3.3,0-6,2.7-6,6v36c0,3.3,2.7,6,6,6h52c3.3,0,6-2.7,6-6V14C64,10.7,61.3,8,58,8z M37.4,38.3c-1.9,2-5,3-9.3,3
			c-1.4,0-2.5-0.1-3.2-0.2v-4.9c0.9,0.2,1.8,0.3,2.7,0.3c2.2,0,3.9-0.5,5.1-1.4c1.2-0.9,1.8-2.4,2-4.3h-0.2
			c-0.4,0.8-0.8,1.3-1.2,1.6c-0.4,0.3-0.9,0.6-1.5,0.8c-0.6,0.2-1.3,0.3-2.1,0.3c-2,0-3.5-0.7-4.6-2c-1.1-1.3-1.7-3.1-1.7-5.5
			c0-2.5,0.7-4.5,2.2-6c1.4-1.4,3.4-2.2,5.9-2.2c2.8,0,5,0.9,6.5,2.8c1.5,1.9,2.3,4.5,2.3,7.9C40.3,33.1,39.4,36.3,37.4,38.3z"/>
	</g>
	<g>
		<path d="M31.7,22.9c-0.7,0-1.2,0.2-1.6,0.7c-0.4,0.5-0.6,1.3-0.6,2.4c0,0.9,0.2,1.5,0.5,2c0.4,0.5,0.9,0.8,1.7,0.8
			c0.7,0,1.3-0.2,1.8-0.7c0.5-0.5,0.8-1.1,0.8-1.8c0-0.9-0.2-1.7-0.7-2.4C33,23.2,32.4,22.9,31.7,22.9z"/>
	</g>
</g>
</svg>
