<?xml version="1.0" encoding="utf-8"?>
<!-- Generator: Adobe Illustrator 21.0.0, SVG Export Plug-In . SVG Version: 6.00 Build 0)  -->
<svg version="1.1" id="Main" xmlns="http://www.w3.org/2000/svg" xmlns:xlink="http://www.w3.org/1999/xlink" x="0px" y="0px"
	 viewBox="0 0 64 64" style="enable-background:new 0 0 64 64;" xml:space="preserve">
<g>
	<g>
		<path d="M56,0H8C3.6,0,0,3.6,0,8v48c0,4.4,3.6,8,8,8h48c4.4,0,8-3.6,8-8V8C64,3.6,60.4,0,56,0z M38.9,39.2
			c-1.6,1.2-3.7,1.8-6.4,1.8h-8.9V18.2h8c3.1,0,5.4,0.5,6.9,1.4c1.5,0.9,2.3,2.4,2.3,4.3c0,1.3-0.3,2.4-1,3.3s-1.5,1.5-2.6,1.8v0.2
			c1.4,0.4,2.4,1,3.1,1.9c0.6,0.9,1,2,1,3.4C41.3,36.4,40.5,38,38.9,39.2z"/>
	</g>
	<g>
		<path d="M34.1,32.1c-0.5-0.4-1.3-0.6-2.2-0.6h-2v4.8H32c1.9,0,2.9-0.8,2.9-2.4C34.9,33.1,34.7,32.5,34.1,32.1z"/>
	</g>
	<g>
		<path d="M33.8,26.4c0.5-0.4,0.7-0.9,0.7-1.6c0-1.3-1-1.9-2.9-1.9h-1.7v4.1h1.9C32.6,26.9,33.3,26.8,33.8,26.4z"/>
	</g>
</g>
</svg>
