<?xml version="1.0" encoding="utf-8"?>
<!-- Generator: Adobe Illustrator 21.0.0, SVG Export Plug-In . SVG Version: 6.00 Build 0)  -->
<svg version="1.1" id="Main" xmlns="http://www.w3.org/2000/svg" xmlns:xlink="http://www.w3.org/1999/xlink" x="0px" y="0px"
	 viewBox="0 0 64 64" style="enable-background:new 0 0 64 64;" xml:space="preserve">
<g>
	<g>
		<path d="M58,8H6c-3.3,0-6,2.7-6,6v36c0,3.3,2.7,6,6,6h52c3.3,0,6-2.7,6-6V14C64,10.7,61.3,8,58,8z M30.5,25.3h-5.6v3.3H30v3.7
			h-5.1v6.4h-4.6V21.6h10.1V25.3z M42.7,37.5c-1.2,1-2.9,1.5-5.2,1.5c-2,0-3.6-0.3-4.9-0.9v-3.8c0.7,0.3,1.4,0.6,2.3,0.8
			s1.6,0.3,2.2,0.3c0.9,0,1.5-0.2,2-0.5s0.7-0.9,0.7-1.6c0-0.7-0.2-1.2-0.7-1.5s-1.2-0.6-2.1-0.6c-0.7,0-1.5,0.1-2.4,0.4l-1.7-0.8
			l0.6-9h9.8v3.9h-5.8l-0.2,2.3c0.6-0.1,1-0.2,1.3-0.2s0.5,0,0.7,0c1,0,1.9,0.2,2.7,0.7s1.4,1.1,1.9,1.9s0.7,1.8,0.7,2.9
			C44.4,35,43.8,36.4,42.7,37.5z"/>
	</g>
</g>
</svg>
