<?xml version="1.0" encoding="utf-8"?>
<!-- Generator: Adobe Illustrator 21.0.0, SVG Export Plug-In . SVG Version: 6.00 Build 0)  -->
<svg version="1.1" id="Main" xmlns="http://www.w3.org/2000/svg" xmlns:xlink="http://www.w3.org/1999/xlink" x="0px" y="0px"
	 viewBox="0 0 64 64" style="enable-background:new 0 0 64 64;" xml:space="preserve">
<g>
	<g>
		<path d="M58,8H6c-3.3,0-6,2.7-6,6v36c0,3.3,2.7,6,6,6h52c3.3,0,6-2.7,6-6V14C64,10.7,61.3,8,58,8z M40.9,36.6h-2.5V41h-6.1v-4.4
			h-9.1v-4.5l9.5-13.9h5.7V32h2.5V36.6z"/>
	</g>
	<g>
		<path d="M31,28.2L28.5,32h3.8v-2.7c0-0.5,0-1.2,0.1-2c0-0.8,0.1-1.3,0.1-1.3h-0.2C31.9,26.8,31.5,27.5,31,28.2z"/>
	</g>
</g>
</svg>
