<?xml version="1.0" encoding="utf-8"?>
<!-- Generator: Adobe Illustrator 21.0.0, SVG Export Plug-In . SVG Version: 6.00 Build 0)  -->
<svg version="1.1" id="Main" xmlns="http://www.w3.org/2000/svg" xmlns:xlink="http://www.w3.org/1999/xlink" x="0px" y="0px"
	 viewBox="0 0 64 64" style="enable-background:new 0 0 64 64;" xml:space="preserve">
<g>
	<g>
		<path d="M53.9,4H10.1C6.7,4,4,6.7,4,10.1v43.9c0,3.3,2.7,6.1,6.1,6.1h43.9c3.3,0,6.1-2.7,6.1-6.1V10.1C60,6.7,57.3,4,53.9,4z
			 M41.4,39.9l-6.1,3.2l-3.4-6.6L29,43.1l-6.4-3.2l4.8-6.5l-7.3-0.6l1.1-6.8l8.2,2.4l-0.9-8.3h7.1l-0.9,8.3l8.3-2.4l0.9,6.9
			l-7.4,0.5L41.4,39.9z"/>
	</g>
</g>
</svg>
