<?xml version="1.0" encoding="utf-8"?>
<!-- Generator: Adobe Illustrator 21.0.0, SVG Export Plug-In . SVG Version: 6.00 Build 0)  -->
<svg version="1.1" id="Main" xmlns="http://www.w3.org/2000/svg" xmlns:xlink="http://www.w3.org/1999/xlink" x="0px" y="0px"
	 viewBox="0 0 64 64" style="enable-background:new 0 0 64 64;" xml:space="preserve">
<g>
	<g>
		<path d="M32,22.8c-0.8,0-1.3,0.5-1.6,1.5c-0.3,1-0.5,2.8-0.5,5.4c0,2.6,0.2,4.4,0.5,5.3c0.3,1,0.9,1.5,1.6,1.5
			c0.8,0,1.3-0.5,1.6-1.5c0.3-1,0.5-2.8,0.5-5.3c0-2.5-0.2-4.3-0.5-5.3C33.3,23.3,32.8,22.8,32,22.8z"/>
	</g>
	<g>
		<path d="M58,8H6c-3.3,0-6,2.7-6,6v36c0,3.3,2.7,6,6,6h52c3.3,0,6-2.7,6-6V14C64,10.7,61.3,8,58,8z M38.2,38.5
			c-1.4,1.9-3.4,2.8-6.2,2.8c-2.7,0-4.8-1-6.2-2.9c-1.4-2-2.1-4.9-2.1-8.8c0-4.1,0.7-7,2-8.9c1.4-1.9,3.4-2.8,6.2-2.8
			c2.7,0,4.8,1,6.2,3c1.4,2,2.1,4.9,2.1,8.8C40.3,33.7,39.6,36.6,38.2,38.5z"/>
	</g>
</g>
</svg>
