<?xml version="1.0" encoding="utf-8"?>
<!-- Generator: Adobe Illustrator 21.0.0, SVG Export Plug-In . SVG Version: 6.00 Build 0)  -->
<svg version="1.1" id="Main" xmlns="http://www.w3.org/2000/svg" xmlns:xlink="http://www.w3.org/1999/xlink" x="0px" y="0px"
	 viewBox="0 0 64 64" style="enable-background:new 0 0 64 64;" xml:space="preserve">
<g>
	<g>
		<path d="M19.7,25.4h-1.3V35h1c1.4,0,2.4-0.4,3.1-1.2s1-2.1,1-3.7c0-1.6-0.3-2.7-0.9-3.5S21,25.4,19.7,25.4z"/>
	</g>
	<g>
		<path d="M56.5,4h-49C3.4,4,0,7.4,0,11.5v41C0,56.6,3.4,60,7.5,60h49c4.1,0,7.5-3.4,7.5-7.5v-41C64,7.4,60.6,4,56.5,4z M25.9,36.4
			c-1.6,1.5-3.8,2.3-6.6,2.3h-5.5V21.6h5.9c2.8,0,4.9,0.7,6.4,2.1s2.2,3.4,2.2,6.1C28.3,32.7,27.5,34.9,25.9,36.4z M43.3,33.4h-8.2
			c0,0.7,0.3,1.3,0.8,1.7s1.2,0.6,2.1,0.6c0.8,0,1.5-0.1,2.2-0.2s1.4-0.4,2.2-0.8V38c-0.7,0.4-1.5,0.6-2.2,0.8S38.6,39,37.5,39
			c-2.2,0-3.9-0.6-5.2-1.8s-1.8-2.8-1.8-5c0-2.2,0.6-4,1.7-5.2s2.8-1.8,4.9-1.8c2,0,3.5,0.5,4.6,1.6s1.6,2.5,1.6,4.5V33.4z
			 M50.5,38.8h-4.6V20.5h4.6V38.8z"/>
	</g>
	<g>
		<path d="M37.2,28.4c-0.5,0-1,0.2-1.4,0.5s-0.6,0.9-0.6,1.6h3.9c0-0.6-0.2-1.2-0.5-1.5S37.8,28.4,37.2,28.4z"/>
	</g>
</g>
</svg>
