<?xml version="1.0" encoding="utf-8"?>
<!-- Generator: Adobe Illustrator 21.0.0, SVG Export Plug-In . SVG Version: 6.00 Build 0)  -->
<svg version="1.1" id="Main" xmlns="http://www.w3.org/2000/svg" xmlns:xlink="http://www.w3.org/1999/xlink" x="0px" y="0px"
	 viewBox="0 0 64 64" style="enable-background:new 0 0 64 64;" xml:space="preserve">
<g>
	<g>
		<path d="M56,0H8C3.6,0,0,3.6,0,8v48c0,4.4,3.6,8,8,8h48c4.4,0,8-3.6,8-8V8C64,3.6,60.4,0,56,0z M34.6,36.3c1,0,2-0.1,2.9-0.4
			c0.9-0.3,1.9-0.6,2.9-1v5.2c-1.9,0.8-4.1,1.3-6.5,1.3c-3.4,0-6.1-1-7.9-3c-1.8-2-2.8-4.9-2.8-8.7c0-2.4,0.4-4.4,1.3-6.2
			c0.9-1.8,2.2-3.2,3.8-4.1c1.7-1,3.6-1.4,5.9-1.4c2.5,0,4.8,0.5,7.1,1.6l-1.9,4.9c-0.8-0.4-1.7-0.7-2.5-1c-0.8-0.3-1.8-0.4-2.7-0.4
			c-1.5,0-2.6,0.6-3.4,1.8c-0.8,1.2-1.2,2.9-1.2,5C29.6,34.1,31.3,36.3,34.6,36.3z"/>
	</g>
</g>
</svg>
