<?xml version="1.0" encoding="utf-8"?>
<!-- Generator: Adobe Illustrator 21.0.0, SVG Export Plug-In . SVG Version: 6.00 Build 0)  -->
<svg version="1.1" id="Main" xmlns="http://www.w3.org/2000/svg" xmlns:xlink="http://www.w3.org/1999/xlink" x="0px" y="0px"
	 viewBox="0 0 64 64" style="enable-background:new 0 0 64 64;" xml:space="preserve">
<g>
	<g>
		<path d="M58,8H6c-3.3,0-6,2.7-6,6v36c0,3.3,2.7,6,6,6h52c3.3,0,6-2.7,6-6V14C64,10.7,61.3,8,58,8z M37.5,39.5
			c-1.7,1.2-4,1.8-7,1.8c-1.2,0-2.4-0.1-3.4-0.3s-2.2-0.5-3.4-1V35c1,0.5,2,0.9,3.1,1.1c1,0.2,2,0.4,2.9,0.4c1.4,0,2.3-0.2,3-0.6
			c0.6-0.4,0.9-1,0.9-1.8c0-0.6-0.2-1.1-0.5-1.4c-0.3-0.3-0.8-0.6-1.6-0.8s-1.7-0.3-2.8-0.3h-1.4V27h1.4c3.1,0,4.7-0.8,4.7-2.4
			c0-0.6-0.2-1.1-0.7-1.3c-0.5-0.3-1.1-0.4-1.9-0.4c-1.5,0-3,0.5-4.5,1.5l-2.6-4.1c1.2-0.8,2.4-1.4,3.7-1.8c1.3-0.4,2.7-0.5,4.4-0.5
			c2.4,0,4.2,0.5,5.6,1.4s2,2.2,2,3.9c0,1.4-0.4,2.6-1.3,3.6c-0.9,1-2.1,1.8-3.8,2.2v0.1c3.8,0.5,5.7,2.3,5.7,5.4
			C40.1,36.6,39.2,38.3,37.5,39.5z"/>
	</g>
</g>
</svg>
