<?xml version="1.0" encoding="utf-8"?>
<!-- Generator: Adobe Illustrator 21.0.0, SVG Export Plug-In . SVG Version: 6.00 Build 0)  -->
<svg version="1.1" id="Main" xmlns="http://www.w3.org/2000/svg" xmlns:xlink="http://www.w3.org/1999/xlink" x="0px" y="0px"
	 viewBox="0 0 64 64" style="enable-background:new 0 0 64 64;" xml:space="preserve">
<g>
	<g>
		<path d="M37.8,29.2L35.9,32h2.8v-2c0-0.4,0-0.9,0-1.5s0-1,0.1-1h-0.1C38.4,28.1,38.1,28.6,37.8,29.2z"/>
	</g>
	<g>
		<path d="M58,8H6c-3.3,0-6,2.7-6,6v36c0,3.3,2.7,6,6,6h52c3.3,0,6-2.7,6-6V14C64,10.7,61.3,8,58,8z M30.5,25.3h-5.6v3.3H30v3.7
			h-5.1v6.4h-4.6V21.6h10.1V25.3z M45.1,35.5h-1.9v3.3h-4.6v-3.3h-6.8v-3.4L39,21.6h4.3V32h1.9V35.5z"/>
	</g>
</g>
</svg>
