<?xml version="1.0" encoding="utf-8"?>
<!-- Generator: Adobe Illustrator 21.0.0, SVG Export Plug-In . SVG Version: 6.00 Build 0)  -->
<svg version="1.1" id="Main" xmlns="http://www.w3.org/2000/svg" xmlns:xlink="http://www.w3.org/1999/xlink" x="0px" y="0px"
	 viewBox="0 0 64 64" style="enable-background:new 0 0 64 64;" xml:space="preserve">
<g>
	<g>
		<path d="M56.5,4h-49C3.4,4,0,7.4,0,11.5v41C0,56.6,3.4,60,7.5,60h49c4.1,0,7.5-3.4,7.5-7.5v-41C64,7.4,60.6,4,56.5,4z M26.3,38.8
			l-0.8-3.2h-5.6L19,38.8h-5.1l5.6-17.2h6.2l5.7,17.2H26.3z M37.5,38.8h-4.6V20.5h4.6V38.8z M49.4,38.3c-0.6,0.3-1.2,0.5-1.8,0.6
			s-1.2,0.2-2,0.2c-1.5,0-2.6-0.4-3.3-1.1s-1-1.9-1-3.5v-5.5h-1.6v-1.9l2-1.4l1.2-2.8h3v2.7h3.3v3.4h-3.3v5.2c0,0.9,0.4,1.3,1.2,1.3
			c0.6,0,1.4-0.2,2.2-0.5V38.3z"/>
	</g>
	<g>
		<path d="M23.1,26.5c-0.2-1-0.4-1.7-0.5-2.1c-0.1,0.4-0.2,1.1-0.4,2s-0.7,2.7-1.4,5.4h3.6l-0.7-2.8C23.5,28.3,23.3,27.5,23.1,26.5z
			"/>
	</g>
</g>
</svg>
