<?xml version="1.0" encoding="utf-8"?>
<!-- Generator: Adobe Illustrator 21.0.0, SVG Export Plug-In . SVG Version: 6.00 Build 0)  -->
<svg version="1.1" id="Main" xmlns="http://www.w3.org/2000/svg" xmlns:xlink="http://www.w3.org/1999/xlink" x="0px" y="0px"
	 viewBox="0 0 64 64" style="enable-background:new 0 0 64 64;" xml:space="preserve">
<g>
	<g>
		<path d="M56,0H8C3.6,0,0,3.6,0,8v48c0,4.4,3.6,8,8,8h48c4.4,0,8-3.6,8-8V8C64,3.6,60.4,0,56,0z M41.7,40c-2.7,0.9-5.6,1.4-8.8,1.4
			c-3.5,0-6.2-1-8.2-3.1c-1.9-2-2.9-5-2.9-8.7c0-3.7,1.1-6.6,3.2-8.6c2.1-2.1,5.1-3.1,8.8-3.1c1.4,0,2.8,0.1,4.1,0.4
			c1.3,0.3,2.4,0.6,3.3,1l-2,4.8c-1.6-0.8-3.5-1.2-5.4-1.2c-1.8,0-3.2,0.6-4.2,1.8s-1.5,2.8-1.5,5c0,2.1,0.4,3.8,1.3,4.9
			c0.9,1.1,2.2,1.7,3.9,1.7c0.9,0,1.8-0.1,2.5-0.3v-3.6h-4.1v-4.8h9.9V40z"/>
	</g>
</g>
</svg>
