<?xml version="1.0" encoding="utf-8"?>
<!-- Generator: Adobe Illustrator 21.0.0, SVG Export Plug-In . SVG Version: 6.00 Build 0)  -->
<svg version="1.1" id="Capa_1" xmlns="http://www.w3.org/2000/svg" xmlns:xlink="http://www.w3.org/1999/xlink" x="0px" y="0px"
	 viewBox="0 0 64 64" style="enable-background:new 0 0 64 64;" xml:space="preserve">
<g>
	<path d="M24.7,24.8c-0.8-0.5-2-0.7-3.6-0.7h-1.5v6.4h1.6c1.6,0,2.8-0.3,3.5-0.8c0.8-0.5,1.1-1.4,1.1-2.5
		C25.9,26,25.5,25.2,24.7,24.8z"/>
	<path d="M47,13H17c-6.6,0-12,5.4-12,12v24c0,1.1,0.9,2,2,2h50c1.1,0,2-0.9,2-2V25C59,18.4,53.6,13,47,13z M27.9,43.6l-5.6-9.1h-2.7
		v9.1h-5V20h6.9c3.2,0,5.6,0.6,7.1,1.8c1.5,1.2,2.3,2.9,2.3,5.3c0,1.4-0.4,2.6-1.1,3.7c-0.8,1.1-1.8,1.9-3.2,2.5
		c3.6,5.3,5.9,8.7,6.9,10.3H27.9z M47.2,43.6h-5V29.9l0-2.2l0.1-2.5c-0.8,0.8-1.4,1.4-1.7,1.6L37.8,29l-2.4-3L43,20h4.1V43.6z"/>
</g>
</svg>
