<?xml version="1.0" encoding="utf-8"?>
<!-- Generator: Adobe Illustrator 21.0.0, SVG Export Plug-In . SVG Version: 6.00 Build 0)  -->
<svg version="1.1" id="Capa_1" xmlns="http://www.w3.org/2000/svg" xmlns:xlink="http://www.w3.org/1999/xlink" x="0px" y="0px"
	 viewBox="0 0 64 64" style="enable-background:new 0 0 64 64;" xml:space="preserve">
<path d="M57,13H7c-1.1,0-2,0.9-2,2v24c0,6.6,5.4,12,12,12h30c6.6,0,12-5.4,12-12V15C59,13.9,58.1,13,57,13z M30.8,43.6H16.2V20h5
	v19.5h9.6V43.6z M49.7,43.6H33.2v-3.5l5.9-6c1.8-1.8,2.9-3,3.4-3.7s0.9-1.3,1.2-1.9c0.2-0.6,0.4-1.2,0.4-1.8c0-0.9-0.3-1.7-0.8-2.1
	c-0.5-0.5-1.2-0.7-2.1-0.7c-0.9,0-1.8,0.2-2.7,0.6c-0.9,0.4-1.8,1-2.7,1.8L33.2,23c1.2-1,2.1-1.7,2.9-2.1c0.8-0.4,1.6-0.7,2.5-0.9
	c0.9-0.2,1.9-0.3,3-0.3c1.5,0,2.8,0.3,3.9,0.8c1.1,0.5,2,1.3,2.6,2.3c0.6,1,0.9,2.1,0.9,3.3c0,1.1-0.2,2.1-0.6,3.1
	c-0.4,1-1,1.9-1.8,2.9s-2.2,2.4-4.2,4.3l-3,2.9v0.2h10.3V43.6z"/>
</svg>
