<?xml version="1.0" encoding="utf-8"?>
<!-- Generator: Adobe Illustrator 21.0.0, SVG Export Plug-In . SVG Version: 6.00 Build 0)  -->
<svg version="1.1" id="Capa_1" xmlns="http://www.w3.org/2000/svg" xmlns:xlink="http://www.w3.org/1999/xlink" x="0px" y="0px"
	 viewBox="0 0 64 64" style="enable-background:new 0 0 64 64;" xml:space="preserve">
<path d="M22,51.4c0,0.2,0,0.4,0,0.6c0,3.3,4.5,6,10,6s10-2.7,10-6c0-0.2,0-0.4,0-0.6c-3.1,0.7-6.5,1.1-10,1.1S25.2,52.1,22,51.4z"/>
<g>
	<path d="M31.3,22h-0.9v3.9h0.9c1.6,0,2.4-0.7,2.4-2.1C33.7,22.5,32.9,22,31.3,22z"/>
	<path d="M32,9C16,9,3,18,3,29c0,11,13,20,29,20s29-9,29-20C61,18,48,9,32,9z M35.2,35.6l-3.6-6.2h-1.2v6.2h-4.6V18.5h5.6
		c4.7,0,7,1.7,7,5.1c0,2-1,3.5-2.9,4.6l5,7.5H35.2z"/>
</g>
</svg>
