<?xml version="1.0" encoding="utf-8"?>
<!-- Generator: Adobe Illustrator 21.0.0, SVG Export Plug-In . SVG Version: 6.00 Build 0)  -->
<svg version="1.1" id="Capa_1" xmlns="http://www.w3.org/2000/svg" xmlns:xlink="http://www.w3.org/1999/xlink" x="0px" y="0px"
	 viewBox="0 0 64 64" style="enable-background:new 0 0 64 64;" xml:space="preserve">
<path d="M32,14.5L14.5,44.3h35L32,14.5z M32,21.5l10.5,19.3h-21L32,21.5z"/>
<path d="M32,6c14.3,0,26,11.7,26,26S46.3,58,32,58S6,46.3,6,32S17.7,6,32,6 M32,4C16.5,4,4,16.5,4,32c0,15.5,12.5,28,28,28
	s28-12.5,28-28C60,16.5,47.5,4,32,4L32,4z"/>
</svg>
