<?xml version="1.0" encoding="utf-8"?>
<!-- Generator: Adobe Illustrator 21.0.0, SVG Export Plug-In . SVG Version: 6.00 Build 0)  -->
<svg version="1.1" id="Capa_1" xmlns="http://www.w3.org/2000/svg" xmlns:xlink="http://www.w3.org/1999/xlink" x="0px" y="0px"
	 viewBox="0 0 64 64" style="enable-background:new 0 0 64 64;" xml:space="preserve">
<g>
	<path d="M23.9,7.3c2.8,0.5,5.5,1.3,8.2,2c1.6,0.5,3.1,0.9,4.7,1.4c2.4,0.8,4.8,1.6,7,2.9c1,0.6,1.9,1.3,2.7,2.1
		c0.9,0.9,1.6,1.9,2.1,3c1,2,1.3,4.2,1.4,6.4c0,1.4,0,2.9-0.2,4.3c-0.2,1.2-0.6,2.4-1.3,3.5c-0.6,0.9-1.4,1.8-2.4,2.3
		c-0.9,0.5-2,0.7-3.1,0.7c-1.6,0-3.2-0.5-4.6-1.2c0-4.8,0-9.6,0-14.5c0-0.9,0-1.8-0.1-2.6c-0.1-0.7-0.4-1.3-0.9-1.8
		c-0.3-0.3-0.8-0.5-1.2-0.6c-0.5-0.1-0.9,0.1-1.2,0.5c-0.5,0.6-0.6,1.4-0.6,2.1c0,12.9,0,25.8,0,38.7c-3.5-1.1-6.9-2.2-10.4-3.3
		C23.9,38,23.9,22.7,23.9,7.3z"/>
	<path d="M8.3,40c4.5-1.6,9.1-3.2,13.6-4.8c0,1.8,0,3.6,0,5.3c0,0.2,0,0.5,0,0.7c-3.6,1.3-7.2,2.6-10.7,3.8c-0.5,0.2-1,0.4-1.4,0.8
		c-0.2,0.2-0.3,0.4-0.2,0.7c0.1,0.3,0.4,0.5,0.7,0.6c0.8,0.3,1.6,0.4,2.5,0.4c0.9,0,1.9-0.1,2.8-0.3c0.6-0.1,1.2-0.3,1.8-0.6
		c1.5-0.6,3.1-1.1,4.6-1.7c0,1.5,0,3,0,4.5c0,0.3,0,0.6,0,0.9C20,50.8,18.1,51,16.2,51c-3.8,0.1-7.7-0.5-11.4-1.7
		c-1.2-0.3-2.4-0.8-3.4-1.6c-0.6-0.4-1-1-1.3-1.6c-0.2-0.6-0.2-1.2,0.1-1.7c0.3-0.5,0.7-1,1.2-1.3c1.1-0.8,2.4-1.4,3.6-1.9
		C6.1,40.7,7.2,40.4,8.3,40z"/>
	<path d="M44.8,38c1-0.1,2.1-0.1,3.1-0.2c3.4,0,6.8,0.4,10.1,1.5c0.6,0.2,1.3,0.4,1.9,0.6c1.1,0.4,2.3,0.9,3.2,1.7
		c0.5,0.5,1,1.2,1,1.9c0,0.6-0.2,1.2-0.7,1.7c-0.8,0.9-1.8,1.5-2.8,2c-1.1,0.6-2.3,0.9-3.4,1.3c-6.9,2.5-13.9,5-20.8,7.5
		c0-1.9,0-3.9,0-5.8c0-0.1,0-0.2,0.1-0.2c5.3-1.9,10.6-3.8,15.8-5.6c0.7-0.3,1.5-0.5,2.1-0.9c0.2-0.2,0.5-0.5,0.4-0.8
		c-0.1-0.3-0.4-0.5-0.7-0.6c-0.8-0.3-1.7-0.4-2.5-0.4c-1.3,0-2.6,0.2-3.9,0.6c-3.8,1.3-7.5,2.7-11.3,4c0-2.1,0-4.2,0-6.3
		C39.1,38.9,41.9,38.3,44.8,38z"/>
</g>
</svg>
