<?xml version="1.0" encoding="utf-8"?>
<!-- Generator: Adobe Illustrator 21.0.0, SVG Export Plug-In . SVG Version: 6.00 Build 0)  -->
<svg version="1.1" id="Capa_1" xmlns="http://www.w3.org/2000/svg" xmlns:xlink="http://www.w3.org/1999/xlink" x="0px" y="0px"
	 viewBox="0 0 64 64" style="enable-background:new 0 0 64 64;" xml:space="preserve">
<polygon points="47.4,19.4 44.6,16.6 32,29.2 19.4,16.6 16.6,19.4 29.2,32 16.6,44.6 19.4,47.4 32,34.8 44.6,47.4 47.4,44.6 
	34.8,32 "/>
<path d="M32,6c14.3,0,26,11.7,26,26S46.3,58,32,58S6,46.3,6,32S17.7,6,32,6 M32,4C16.5,4,4,16.5,4,32c0,15.5,12.5,28,28,28
	s28-12.5,28-28C60,16.5,47.5,4,32,4L32,4z"/>
</svg>
