<?xml version="1.0" encoding="utf-8"?>
<!-- Generator: Adobe Illustrator 21.0.0, SVG Export Plug-In . SVG Version: 6.00 Build 0)  -->
<svg version="1.1" id="Capa_1" xmlns="http://www.w3.org/2000/svg" xmlns:xlink="http://www.w3.org/1999/xlink" x="0px" y="0px"
	 viewBox="0 0 64 64" style="enable-background:new 0 0 64 64;" xml:space="preserve">
<path d="M32,55L32,55c-5,0-9-4-9-9V32c0-4.9,4-9,9-9h0c4.9,0,9,4,9,9v14C41,51,37,55,32,55z"/>
<g>
	<path d="M12,13.6c0,1.6-0.4,2.9-1.2,3.8c-0.8,0.9-1.9,1.4-3.4,1.4c-1.5,0-2.6-0.5-3.4-1.4c-0.8-0.9-1.2-2.2-1.2-3.8
		c0-1.6,0.4-2.9,1.2-3.8c0.8-0.9,1.9-1.3,3.4-1.3c1.4,0,2.6,0.5,3.4,1.4S12,12,12,13.6z M4,13.6c0,1.4,0.3,2.4,0.9,3.1s1.4,1,2.5,1
		c1.1,0,1.9-0.3,2.5-1c0.6-0.7,0.8-1.7,0.8-3.1c0-1.3-0.3-2.4-0.8-3.1c-0.6-0.7-1.4-1-2.5-1c-1.1,0-1.9,0.3-2.5,1S4,12.2,4,13.6z"/>
	<path d="M20.6,11.5c0,1-0.3,1.8-1,2.3c-0.7,0.5-1.7,0.8-3,0.8h-1.2v3.9h-1.2v-10h2.6C19.3,8.6,20.6,9.5,20.6,11.5z M15.4,13.6h1
		c1,0,1.8-0.2,2.2-0.5c0.5-0.3,0.7-0.9,0.7-1.6c0-0.7-0.2-1.2-0.6-1.5c-0.4-0.3-1.1-0.5-2-0.5h-1.3V13.6z"/>
	<path d="M25.7,18.6h-1.2v-9h-3.2v-1h7.5v1h-3.2V18.6z"/>
	<path d="M30.4,18.6v-10h1.2v10H30.4z"/>
	<path d="M43,13.6c0,1.6-0.4,2.9-1.2,3.8c-0.8,0.9-1.9,1.4-3.4,1.4c-1.5,0-2.6-0.5-3.4-1.4c-0.8-0.9-1.2-2.2-1.2-3.8
		c0-1.6,0.4-2.9,1.2-3.8c0.8-0.9,1.9-1.3,3.4-1.3c1.4,0,2.6,0.5,3.4,1.4S43,12,43,13.6z M35,13.6c0,1.4,0.3,2.4,0.9,3.1s1.4,1,2.5,1
		c1.1,0,1.9-0.3,2.5-1c0.6-0.7,0.8-1.7,0.8-3.1c0-1.3-0.3-2.4-0.8-3.1c-0.6-0.7-1.4-1-2.5-1c-1.1,0-1.9,0.3-2.5,1S35,12.2,35,13.6z"
		/>
	<path d="M53,18.6h-1.3l-5.5-8.4h-0.1c0.1,1,0.1,1.9,0.1,2.7v5.7h-1.1v-10h1.3l5.4,8.4H52c0-0.1,0-0.5-0.1-1.2c0-0.7,0-1.1,0-1.4
		V8.6H53V18.6z"/>
	<path d="M61.4,15.9c0,0.9-0.3,1.6-1,2.1c-0.6,0.5-1.5,0.7-2.6,0.7c-1.2,0-2.1-0.2-2.7-0.5v-1.1c0.4,0.2,0.9,0.3,1.3,0.4
		c0.5,0.1,1,0.2,1.4,0.2c0.8,0,1.4-0.1,1.8-0.4c0.4-0.3,0.6-0.7,0.6-1.2c0-0.3-0.1-0.6-0.2-0.9c-0.1-0.2-0.4-0.4-0.7-0.6
		c-0.3-0.2-0.8-0.4-1.5-0.6c-0.9-0.3-1.6-0.7-2-1.2s-0.6-1.1-0.6-1.8c0-0.8,0.3-1.4,0.9-1.8c0.6-0.5,1.3-0.7,2.3-0.7
		c1,0,1.9,0.2,2.7,0.5l-0.4,1c-0.8-0.3-1.6-0.5-2.4-0.5c-0.6,0-1.1,0.1-1.4,0.4c-0.3,0.3-0.5,0.6-0.5,1.1c0,0.3,0.1,0.6,0.2,0.9
		c0.1,0.2,0.3,0.4,0.6,0.6c0.3,0.2,0.8,0.4,1.4,0.6c1,0.4,1.8,0.8,2.2,1.2C61.2,14.7,61.4,15.2,61.4,15.9z"/>
</g>
</svg>
