<?xml version="1.0" encoding="utf-8"?>
<!-- Generator: Adobe Illustrator 21.0.0, SVG Export Plug-In . SVG Version: 6.00 Build 0)  -->
<svg version="1.1" id="Capa_1" xmlns="http://www.w3.org/2000/svg" xmlns:xlink="http://www.w3.org/1999/xlink" x="0px" y="0px"
	 viewBox="0 0 64 64" style="enable-background:new 0 0 64 64;" xml:space="preserve">
<path d="M22,51.4c0,0.2,0,0.4,0,0.6c0,3.3,4.5,6,10,6s10-2.7,10-6c0-0.2,0-0.4,0-0.6c-3.1,0.7-6.5,1.1-10,1.1S25.2,52.1,22,51.4z"/>
<path d="M32,9C16,9,3,18,3,29c0,11,13,20,29,20s29-9,29-20C61,18,48,9,32,9z M38.1,35.6H26.9V18.5h4.6v13.4h6.6V35.6z"/>
</svg>
