<?xml version="1.0" encoding="utf-8"?>
<!-- Generator: Adobe Illustrator 21.0.0, SVG Export Plug-In . SVG Version: 6.00 Build 0)  -->
<svg version="1.1" id="Capa_1" xmlns="http://www.w3.org/2000/svg" xmlns:xlink="http://www.w3.org/1999/xlink" x="0px" y="0px"
	 viewBox="0 0 64 64" style="enable-background:new 0 0 64 64;" xml:space="preserve">
<g>
	<path d="M24.7,24.8c-0.8-0.5-2-0.7-3.6-0.7h-1.5v6.4h1.6c1.6,0,2.8-0.3,3.5-0.8c0.8-0.5,1.1-1.4,1.1-2.5
		C25.9,26,25.5,25.2,24.7,24.8z"/>
	<path d="M57,13H7c-1.1,0-2,0.9-2,2v24c0,6.6,5.4,12,12,12h30c6.6,0,12-5.4,12-12V15C59,13.9,58.1,13,57,13z M27.9,43.6l-5.6-9.1
		h-2.7v9.1h-5V20h6.9c3.2,0,5.6,0.6,7.1,1.8c1.5,1.2,2.3,2.9,2.3,5.3c0,1.4-0.4,2.6-1.1,3.7c-0.8,1.1-1.8,1.9-3.2,2.5
		c3.6,5.3,5.9,8.7,6.9,10.3H27.9z M51.3,43.6H34.8v-3.5l5.9-6c1.8-1.8,2.9-3,3.4-3.7s0.9-1.3,1.2-1.9c0.2-0.6,0.4-1.2,0.4-1.8
		c0-0.9-0.3-1.7-0.8-2.1c-0.5-0.5-1.2-0.7-2.1-0.7c-0.9,0-1.8,0.2-2.7,0.6c-0.9,0.4-1.8,1-2.7,1.8L34.7,23c1.2-1,2.1-1.7,2.9-2.1
		c0.8-0.4,1.6-0.7,2.5-0.9c0.9-0.2,1.9-0.3,3-0.3c1.5,0,2.8,0.3,3.9,0.8c1.1,0.5,2,1.3,2.6,2.3c0.6,1,0.9,2.1,0.9,3.3
		c0,1.1-0.2,2.1-0.6,3.1c-0.4,1-1,1.9-1.8,2.9s-2.2,2.4-4.2,4.3l-3,2.9v0.2h10.3V43.6z"/>
</g>
</svg>
