<?xml version="1.0" encoding="utf-8"?>
<!-- Generator: Adobe Illustrator 21.0.0, SVG Export Plug-In . SVG Version: 6.00 Build 0)  -->
<svg version="1.1" id="Capa_1" xmlns="http://www.w3.org/2000/svg" xmlns:xlink="http://www.w3.org/1999/xlink" x="0px" y="0px"
	 viewBox="0 0 64 64" style="enable-background:new 0 0 64 64;" xml:space="preserve">
<path d="M32,55L32,55c-5,0-9-4-9-9V32c0-4.9,4-9,9-9h0c4.9,0,9,4,9,9v14C41,51,37,55,32,55z"/>
<g>
	<path d="M17.4,15.9c0,0.9-0.3,1.6-1,2.1c-0.6,0.5-1.5,0.7-2.6,0.7c-1.2,0-2.1-0.2-2.7-0.5v-1.1c0.4,0.2,0.9,0.3,1.3,0.4
		c0.5,0.1,1,0.2,1.4,0.2c0.8,0,1.4-0.1,1.8-0.4c0.4-0.3,0.6-0.7,0.6-1.2c0-0.3-0.1-0.6-0.2-0.9c-0.1-0.2-0.4-0.4-0.7-0.6
		c-0.3-0.2-0.8-0.4-1.5-0.6c-0.9-0.3-1.6-0.7-2-1.2s-0.6-1.1-0.6-1.8c0-0.8,0.3-1.4,0.9-1.8c0.6-0.5,1.3-0.7,2.3-0.7
		c1,0,1.9,0.2,2.7,0.5l-0.4,1c-0.8-0.3-1.6-0.5-2.4-0.5c-0.6,0-1.1,0.1-1.4,0.4c-0.3,0.3-0.5,0.6-0.5,1.1c0,0.3,0.1,0.6,0.2,0.9
		c0.1,0.2,0.3,0.4,0.6,0.6c0.3,0.2,0.8,0.4,1.4,0.6c1,0.4,1.8,0.8,2.2,1.2C17.2,14.7,17.4,15.2,17.4,15.9z"/>
	<path d="M27,18.6h-1.2v-4.7h-5.3v4.7h-1.2v-10h1.2v4.3h5.3V8.6H27V18.6z"/>
	<path d="M36,18.6l-1.2-3.2h-4l-1.2,3.2h-1.2l4-10h1l3.9,10H36z M34.4,14.3l-1.2-3.1c-0.2-0.4-0.3-0.9-0.5-1.4
		c-0.1,0.4-0.2,0.9-0.4,1.4l-1.2,3.1H34.4z"/>
	<path d="M39.8,14.4v4.2h-1.2v-10h2.7c1.2,0,2.1,0.2,2.7,0.7s0.9,1.2,0.9,2.1c0,1.3-0.7,2.2-2,2.7l2.7,4.5h-1.4l-2.4-4.2H39.8z
		 M39.8,13.4h1.6c0.8,0,1.4-0.2,1.8-0.5s0.6-0.8,0.6-1.5c0-0.7-0.2-1.1-0.6-1.4c-0.4-0.3-1-0.4-1.9-0.4h-1.5V13.4z"/>
	<path d="M52.8,18.6h-5.6v-10h5.6v1h-4.4v3.2h4.1v1h-4.1v3.7h4.4V18.6z"/>
</g>
</svg>
