<?xml version="1.0" encoding="utf-8"?>
<!-- Generator: Adobe Illustrator 21.0.0, SVG Export Plug-In . SVG Version: 6.00 Build 0)  -->
<svg version="1.1" id="Capa_1" xmlns="http://www.w3.org/2000/svg" xmlns:xlink="http://www.w3.org/1999/xlink" x="0px" y="0px"
	 viewBox="0 0 64 64" style="enable-background:new 0 0 64 64;" xml:space="preserve">
<g>
	<path d="M37.7,3H26.3C24.5,3,23,4.5,23,6.4v3.4v1.7v8.6l9,5.9l9-5.9v-8.6V9.9V6.4C41,4.5,39.5,3,37.7,3z"/>
</g>
<g>
	<path d="M26.3,61h11.5c1.8,0,3.3-1.5,3.3-3.4v-3.4v-1.7v-8.6L32,38l-9,5.9v8.6v1.7v3.4C23,59.5,24.5,61,26.3,61z"/>
</g>
<g>
	<path d="M61,37.7V26.3c0-1.8-1.5-3.3-3.4-3.3h-3.4h-1.7h-8.6L38,32l5.9,9h8.6h1.7h3.4C59.5,41,61,39.5,61,37.7z"/>
</g>
<g>
	<path d="M3,26.3v11.5C3,39.5,4.5,41,6.4,41h3.4h1.7h8.6l5.9-9l-5.9-9h-8.6H9.9H6.4C4.5,23,3,24.5,3,26.3z"/>
</g>
</svg>
