<?xml version="1.0" encoding="utf-8"?>
<!-- Generator: Adobe Illustrator 21.0.0, SVG Export Plug-In . SVG Version: 6.00 Build 0)  -->
<svg version="1.1" id="Capa_1" xmlns="http://www.w3.org/2000/svg" xmlns:xlink="http://www.w3.org/1999/xlink" x="0px" y="0px"
	 viewBox="0 0 64 64" style="enable-background:new 0 0 64 64;" xml:space="preserve">
<path d="M47,13H17c-6.6,0-12,5.4-12,12v24c0,1.1,0.9,2,2,2h50c1.1,0,2-0.9,2-2V25C59,18.4,53.6,13,47,13z M30.8,43.6H16.2V20h5v19.5
	h9.6V43.6z M45.6,43.6h-5V29.9l0-2.2l0.1-2.5c-0.8,0.8-1.4,1.4-1.7,1.6L36.3,29l-2.4-3l7.6-6.1h4.1V43.6z"/>
</svg>
