<?xml version="1.0" encoding="utf-8"?>
<!-- Generator: Adobe Illustrator 21.0.0, SVG Export Plug-In . SVG Version: 6.00 Build 0)  -->
<svg version="1.1" id="Capa_1" xmlns="http://www.w3.org/2000/svg" xmlns:xlink="http://www.w3.org/1999/xlink" x="0px" y="0px"
	 viewBox="0 0 64 64" style="enable-background:new 0 0 64 64;" xml:space="preserve">
<path d="M40,0h-8h-8c-6.6,0-12,5.4-12,12v18v2v12c0,11,9,20,20,20h0.3C43.1,64,52,55.1,52,44.3V32v-2V12C52,5.4,46.6,0,40,0z M14,12
	c0-5.5,4.5-10,10-10h6h1v4.1c-2.8,0.4-5,2.8-5,5.7v8.6c0,2.9,2.2,5.3,5,5.7V30H14V12z M50,44.3C50,54,42,62,32.3,62H32
	c-9.9,0-18-8.1-18-18V32h18h18V44.3z M33,30v-4.1c2.8-0.4,5-2.8,5-5.7v-8.6c0-2.9-2.2-5.3-5-5.7V2h1h6c5.5,0,10,4.5,10,10v18H33z"/>
</svg>
