<?xml version="1.0" encoding="utf-8"?>
<!-- Generator: Adobe Illustrator 21.0.0, SVG Export Plug-In . SVG Version: 6.00 Build 0)  -->
<svg version="1.1" id="Capa_1" xmlns="http://www.w3.org/2000/svg" xmlns:xlink="http://www.w3.org/1999/xlink" x="0px" y="0px"
	 viewBox="0 0 64 64" style="enable-background:new 0 0 64 64;" xml:space="preserve">
<path d="M44,15.5c-0.4,0-0.8-0.1-1.1-0.4L32,4.1L21.1,15.1c-0.6,0.6-1.5,0.6-2.1,0c-0.6-0.6-0.6-1.5,0-2.1l12-12
	c0.6-0.6,1.5-0.6,2.1,0l12,12c0.6,0.6,0.6,1.5,0,2.1C44.8,15.4,44.4,15.5,44,15.5z"/>
<path d="M32,63.5c-0.4,0-0.8-0.1-1.1-0.4l-12-12c-0.6-0.6-0.6-1.5,0-2.1c0.6-0.6,1.5-0.6,2.1,0L32,59.9l10.9-10.9
	c0.6-0.6,1.5-0.6,2.1,0c0.6,0.6,0.6,1.5,0,2.1l-12,12C32.8,63.4,32.4,63.5,32,63.5z"/>
<path d="M32,15c-5.5,0-10,4.5-10,10v14c0,5.5,4.5,10,10,10c5.5,0,10-4.5,10-10V25C42,19.5,37.5,15,32,15L32,15z"/>
</svg>
