<?xml version="1.0" encoding="utf-8"?>
<!-- Generator: Adobe Illustrator 21.0.0, SVG Export Plug-In . SVG Version: 6.00 Build 0)  -->
<svg version="1.1" id="Capa_1" xmlns="http://www.w3.org/2000/svg" xmlns:xlink="http://www.w3.org/1999/xlink" x="0px" y="0px"
	 viewBox="0 0 64 64" style="enable-background:new 0 0 64 64;" xml:space="preserve">
<path d="M44,27.8c-0.4,0-0.8-0.1-1.1-0.4L32,16.4L21.1,27.3c-0.6,0.6-1.5,0.6-2.1,0c-0.6-0.6-0.6-1.5,0-2.1l12-12
	c0.6-0.6,1.5-0.6,2.1,0l12,12c0.6,0.6,0.6,1.5,0,2.1C44.8,27.6,44.4,27.8,44,27.8z"/>
<path d="M32,27.3c-5.5,0-10,4.5-10,10v14c0,5.5,4.5,10,10,10c5.5,0,10-4.5,10-10v-14C42,31.7,37.5,27.3,32,27.3L32,27.3z"/>
<path d="M44,17.8c-0.4,0-0.8-0.1-1.1-0.4L32,6.4L21.1,17.3c-0.6,0.6-1.5,0.6-2.1,0c-0.6-0.6-0.6-1.5,0-2.1l12-12
	c0.6-0.6,1.5-0.6,2.1,0l12,12c0.6,0.6,0.6,1.5,0,2.1C44.8,17.6,44.4,17.8,44,17.8z"/>
</svg>
