<?xml version="1.0" encoding="utf-8"?>
<!-- Generator: Adobe Illustrator 21.0.0, SVG Export Plug-In . SVG Version: 6.00 Build 0)  -->
<svg version="1.1" id="Capa_1" xmlns="http://www.w3.org/2000/svg" xmlns:xlink="http://www.w3.org/1999/xlink" x="0px" y="0px"
	 viewBox="0 0 64 64" style="enable-background:new 0 0 64 64;" xml:space="preserve">
<path d="M33,3c13.8,0,25,11.2,25,25v28c0,2.8-2.2,5-5,5H11c-2.8,0-5-2.2-5-5V8c0-2.8,2.2-5,5-5H33 M33,0H11C6.6,0,3,3.6,3,8v48
	c0,4.4,3.6,8,8,8h42c4.4,0,8-3.6,8-8V28C61,12.6,48.4,0,33,0L33,0z"/>
</svg>
