<?xml version="1.0" encoding="utf-8"?>
<!-- Generator: Adobe Illustrator 21.0.0, SVG Export Plug-In . SVG Version: 6.00 Build 0)  -->
<svg version="1.1" id="Capa_1" xmlns="http://www.w3.org/2000/svg" xmlns:xlink="http://www.w3.org/1999/xlink" x="0px" y="0px"
	 viewBox="0 0 64 64" style="enable-background:new 0 0 64 64;" xml:space="preserve">
<g>
	<path d="M44,36.2c-0.4,0-0.8,0.1-1.1,0.4L32,47.6L21.1,36.7c-0.6-0.6-1.5-0.6-2.1,0c-0.6,0.6-0.6,1.5,0,2.1l12,12
		c0.6,0.6,1.5,0.6,2.1,0l12-12c0.6-0.6,0.6-1.5,0-2.1C44.8,36.4,44.4,36.2,44,36.2z"/>
	<path d="M32,33.7c-3.9,0-7-3.1-7-7v-14c0-3.9,3.1-7,7-7s7,3.1,7,7v14C39,30.6,35.9,33.7,32,33.7 M32,36.7c5.5,0,10-4.5,10-10v-14
		c0-5.5-4.5-10-10-10c-5.5,0-10,4.5-10,10v14C22,32.3,26.5,36.7,32,36.7L32,36.7z"/>
	<path d="M44,46.2c-0.4,0-0.8,0.1-1.1,0.4L32,57.6L21.1,46.7c-0.6-0.6-1.5-0.6-2.1,0c-0.6,0.6-0.6,1.5,0,2.1l12,12
		c0.6,0.6,1.5,0.6,2.1,0l12-12c0.6-0.6,0.6-1.5,0-2.1C44.8,46.4,44.4,46.2,44,46.2z"/>
</g>
</svg>
